<svg width="149" height="195" viewBox="0 0 149 195" fill="none" xmlns="http://www.w3.org/2000/svg">
<path d="M93.779 153.033C43.226 118.208 32.224 -14.656 89.6 4.26599C93.513 -4.21901 136.229 -1.77402 137.655 43.915C140.451 133.492 93.779 153.033 93.779 153.033Z" fill="#7D4230"/>
<path d="M108.841 79.814C129.37 88.934 144.889 148.176 146.434 159.973C147.17 165.596 135.411 170.185 131.084 157.975C126.757 145.765 117.456 118.102 112.731 113.354C108.006 108.606 108.841 79.814 108.841 79.814Z" fill="#6DC6D1"/>
<path d="M111.975 115.077C116.769 119.669 126.47 146.421 130.974 158.229C133.087 163.77 136.777 165.707 140.021 165.669C138.34 155.052 125.174 108.829 107.762 92.778C108.102 101.233 109.103 112.325 111.975 115.077Z" fill="#55B0B7"/>
<path d="M76.697 77.651C55.95 86.522 39.014 144.145 37.187 155.621C36.316 161.09 47.966 165.554 52.585 153.678C57.204 141.802 67.166 114.895 72.005 110.276C76.843 105.657 76.697 77.651 76.697 77.651Z" fill="#6DC6D1"/>
<path d="M44.411 161.121C47.486 160.807 50.78 158.833 52.795 154.039C57.565 142.692 67.953 116.751 72.909 112.402C77.018 108.797 77.971 88.881 78.178 82.179C59.572 100.945 45.986 150.495 44.442 160.746C44.423 160.871 44.417 160.996 44.411 161.121Z" fill="#55B0B7"/>
<path d="M67.316 194.365H128.306L114.204 127.291L77.159 127.21L67.316 194.365Z" fill="#6DC6D1"/>
<path d="M96.119 152.859C110.691 152.951 124.013 170.677 126.416 194.365H128.306L114.204 127.291L77.159 127.211L67.316 194.365H68.615C69.298 170.48 81.482 152.767 96.119 152.859Z" fill="#55B0B7"/>
<path d="M76.697 77.651C67.996 100.635 65.394 133.654 66.873 137.181C68.352 140.708 120.232 139.563 121.711 136.741C123.19 133.92 112.053 84.11 109.834 80.584C107.615 77.057 77.77 74.818 76.697 77.651Z" fill="#6DC6D1"/>
<path d="M112.659 89.315C115.836 105.047 119.964 131.805 118.882 133.832C117.397 136.615 70.255 138.632 68.784 135.153C67.77 132.756 67.929 115.277 70.988 97.22C66.651 116.362 65.195 135.603 66.287 138.206C67.766 141.733 121.332 140.367 122.811 137.546C123.95 135.373 116.948 104.833 112.659 89.315Z" fill="#55B0B7"/>
<path d="M109.182 79.993C104.284 76.819 77.708 74.98 76.696 77.652C74.377 78.644 72.109 80.272 69.9 82.349C76.238 85.333 84.402 87.608 93.45 88.618C102.681 89.649 111.308 89.195 118.219 87.606C115.348 84.137 112.325 81.478 109.182 79.993Z" fill="#55B0B7"/>
<path d="M77.118 77.246C80.359 97.249 94.241 106.803 94.241 106.803C94.241 106.803 106.461 96.713 109.174 79.988C104.533 76.994 80.645 75.195 77.118 77.246Z" fill="#97F0F7"/>
<path d="M148.198 162.33C148.26 154.552 144.413 148.215 139.607 148.177C134.8 148.139 130.854 154.414 130.792 162.193C130.731 169.972 134.578 176.309 139.384 176.347C144.191 176.385 148.137 170.109 148.198 162.33Z" fill="#FFFDDE"/>
<path d="M135.828 149.516C132.747 151.854 130.654 157 130.771 162.832C130.898 169.176 133.6 174.366 137.2 175.892C137.699 172.791 140.185 170.446 140.185 166.799C140.185 160.567 137.839 152.43 135.828 149.516Z" fill="#EFEAC2"/>
<path d="M51.864 147.552C49.943 140.019 44.651 135.046 40.044 136.445C35.437 137.844 33.26 145.084 35.182 152.617C37.103 160.15 42.395 165.123 47.002 163.724C51.608 162.325 53.785 155.085 51.864 147.552Z" fill="#EFEAC2"/>
<path d="M49.466 141.799C46.955 137.7 43.328 135.447 40.043 136.445C37.662 137.168 35.938 139.457 35.086 142.534C37.597 146.633 41.224 148.886 44.508 147.888C46.89 147.165 48.614 144.876 49.466 141.799Z" fill="#FFFDDE"/>
<path d="M135.775 194.365H148.072C148.689 180.842 148.52 167.493 146.384 159.442C145.468 155.99 142.081 153.786 138.679 154.657C135.511 155.467 132.35 158.421 132.673 167.116C132.845 171.771 134.16 182.506 135.775 194.365Z" fill="#EDB984"/>
<path d="M138.459 154.722C135.367 155.613 132.357 158.621 132.672 167.115C132.845 171.771 134.16 182.506 135.775 194.364H141.169C141.384 191.022 141.505 187.499 141.505 183.844C141.505 172.117 140.319 161.64 138.459 154.722Z" fill="#E79B69"/>
<path d="M108.667 79.702C108.636 79.686 108.598 79.671 108.566 79.656C108.403 79.578 108.232 79.5 108.044 79.423C107.979 79.397 107.905 79.371 107.838 79.345C107.671 79.28 107.502 79.216 107.318 79.153C107.229 79.123 107.131 79.093 107.038 79.063C106.862 79.006 106.684 78.948 106.495 78.893C106.389 78.862 106.275 78.831 106.164 78.8C105.973 78.746 105.781 78.693 105.579 78.641C105.46 78.61 105.336 78.58 105.214 78.55C105.01 78.5 104.804 78.45 104.59 78.401C104.455 78.37 104.316 78.34 104.177 78.309C103.962 78.262 103.745 78.215 103.523 78.17C103.379 78.14 103.232 78.112 103.085 78.083C102.86 78.039 102.632 77.995 102.4 77.953C102.24 77.924 102.079 77.895 101.916 77.866C101.685 77.825 101.451 77.785 101.214 77.746C101.048 77.718 100.88 77.691 100.711 77.664C100.473 77.626 100.231 77.589 99.988 77.552C99.808 77.525 99.627 77.498 99.445 77.472C99.209 77.438 98.971 77.405 98.731 77.373C98.537 77.346 98.343 77.32 98.147 77.295C97.92 77.265 97.69 77.237 97.46 77.209C97.244 77.182 97.028 77.156 96.81 77.13C96.603 77.106 96.393 77.083 96.185 77.06C95.945 77.033 95.706 77.006 95.465 76.981C95.281 76.962 95.097 76.944 94.913 76.926C94.642 76.899 94.371 76.872 94.099 76.846C93.972 76.834 93.845 76.824 93.718 76.812C93.39 76.783 93.061 76.753 92.733 76.727C92.725 76.726 92.717 76.726 92.71 76.725C85.724 76.159 78.883 76.223 77.121 77.247C77.628 80.377 78.416 83.221 79.35 85.843C83.675 87.092 88.42 88.057 93.454 88.619C98.034 89.13 102.464 89.275 106.611 89.098C107.724 86.336 108.64 83.299 109.177 79.99C109.025 79.892 108.855 79.796 108.667 79.702Z" fill="#7EDDE0"/>
<path d="M79.729 76.602C80.893 82.464 86.115 86.888 92.385 86.888C97.998 86.888 102.761 83.338 104.536 78.389C97.47 76.781 85.359 75.928 79.729 76.602Z" fill="#BEEAEA"/>
<path d="M99.561 50.082L86.51 48.183L84.693 76.703C84.364 84.892 100.567 85.542 100.895 77.354L99.561 50.082Z" fill="#D27558"/>
<path d="M93.566 74.637C73.654 64.749 74.37 46.451 74.491 35.917C74.612 25.383 81.81 17.949 92.844 17.949C103.879 17.949 111.126 24.119 110.927 41.394C110.676 63.304 93.566 74.637 93.566 74.637Z" fill="#EDB984"/>
<path d="M73.361 48.027C72.48 45.053 70.85 42.835 69.72 43.073C68.59 43.312 68.389 45.916 69.27 48.891C70.151 51.866 71.781 54.083 72.911 53.845C74.041 53.606 74.242 51.001 73.361 48.027Z" fill="#EDB984"/>
<path d="M111.897 48.027C112.778 45.053 114.408 42.835 115.538 43.073C116.668 43.312 116.869 45.916 115.988 48.891C115.107 51.866 113.477 54.083 112.347 53.845C111.217 53.606 111.016 51.001 111.897 48.027Z" fill="#EDB984"/>
<path d="M70.277 42.077C83.842 35.595 93.325 16.748 93.325 16.748C93.325 16.748 83.962 12.427 75.319 19.629C69.496 24.481 70.277 42.077 70.277 42.077Z" fill="#7D4230"/>
<path d="M114.537 41.477C100.972 34.995 91.489 16.148 91.489 16.148C91.489 16.148 100.852 11.826 109.495 19.029C115.317 23.881 114.537 41.477 114.537 41.477Z" fill="#7D4230"/>
<path d="M86.927 44.463C86.767 42.419 85.407 40.782 83.889 40.807C82.372 40.832 81.272 42.51 81.432 44.554C81.592 46.598 82.952 48.235 84.47 48.21C85.987 48.185 87.087 46.507 86.927 44.463Z" fill="#5A4949"/>
<path d="M85.748 35.613L80.031 37.108C79.55 37.234 79.28 37.611 79.427 37.952L79.981 39.236C80.128 39.577 80.637 39.751 81.118 39.625L86.835 38.13C87.316 38.004 87.586 37.627 87.439 37.286L86.885 36.002C86.738 35.661 86.229 35.487 85.748 35.613Z" fill="#7D4230"/>
<path d="M103.568 44.728C103.418 42.898 102.089 41.433 100.599 41.457C99.109 41.48 98.022 42.983 98.172 44.813C98.322 46.643 99.651 48.108 101.141 48.084C102.631 48.061 103.717 46.558 103.568 44.728Z" fill="#5A4949"/>
<path d="M105.081 37.802L99.612 35.549C99.152 35.36 98.631 35.464 98.447 35.783L97.754 36.984C97.57 37.303 97.794 37.714 98.254 37.904L103.723 40.157C104.183 40.346 104.705 40.242 104.888 39.923L105.581 38.722C105.765 38.403 105.541 37.991 105.081 37.802Z" fill="#7D4230"/>
<path d="M91.068 51.727C90.223 51.373 89.645 50.61 89.284 49.969L89.222 49.975C89.222 49.975 89.938 52.107 91.317 52.762C92.681 53.41 93.877 52.044 95.456 49.48C93.762 51.366 92.422 52.294 91.068 51.727Z" fill="#D27558"/>
<path d="M98.596 57.12L86.532 57.154C86.532 57.154 86.618 62.052 92.163 63.389C97.707 64.725 98.596 57.12 98.596 57.12Z" fill="#3E2D34"/>
<path d="M96.579 60.605C97.318 59.205 97.498 57.669 97.498 57.669L87.758 57.697C87.758 57.697 87.79 59.095 88.752 60.456L96.579 60.605Z" fill="#F9EDDB"/>
<path d="M8.57001 53.467C11.497 50.284 15.226 49.538 17.839 49.472C21.514 49.381 25.338 50.651 27.355 52.634L26.294 53.713C24.552 52 21.169 50.904 17.877 50.986C15.556 51.043 12.252 51.699 9.68399 54.492L8.57001 53.467Z" fill="#C45B7B"/>
<path d="M23.499 55.55L23.067 54.099L26.782 52.99L25.687 48.967L27.147 48.567L28.631 54.017L23.499 55.55Z" fill="#C45B7B"/>
<g opacity="0.8">
<path d="M10.197 70.119C8.74299 68.789 4.28801 71.918 4.41101 73.525C4.51401 74.88 4.155 78.206 12.255 85.524L14.549 84.514C14.549 84.514 11.651 71.45 10.197 70.119Z" fill="#E79B69"/>
<path d="M10.847 71.229C10.612 70.693 10.392 70.297 10.198 70.119C8.74399 68.789 4.28898 71.918 4.41198 73.525C4.47498 74.345 4.38001 75.896 6.08401 78.611C6.34701 74.909 8.20298 71.926 10.847 71.229Z" fill="#EDB984"/>
<path d="M6.556 79.321C7.704 80.975 9.47201 83.009 12.256 85.524L13.891 84.804C13.494 83.744 12.797 82.644 11.803 81.668C10.123 80.016 8.109 79.185 6.556 79.321Z" fill="#EDB984"/>
<path d="M40.077 159.55C26.372 148.015 11.405 81.907 11.405 81.907L12.347 80.669C12.347 80.669 42.19 132.586 47.176 144.303C53.694 159.621 40.077 159.55 40.077 159.55Z" fill="#EDB984"/>
<path d="M46.426 146.638C41.084 148.979 29.042 133.365 19.134 111.458C24.729 130.66 32.588 153.248 40.077 159.55C40.077 159.55 52.928 159.613 47.677 145.565C47.331 146.057 46.917 146.423 46.426 146.638Z" fill="#E79B69"/>
<path d="M11.997 71.732C7.03102 73.806 6.54902 75.909 7.63102 76.144C8.71302 76.379 11.216 74.416 11.216 74.416L11.958 75.488C11.958 75.488 9.658 79.115 12.365 84.285L15.163 85.588C17.425 77.32 13.352 71.166 11.997 71.732Z" fill="#EDB984"/>
<path d="M4.61498 75.298C0.520985 67.37 0.190991 62.831 0.395991 62.231C0.600991 61.63 5.58401 72.316 5.58401 72.316L4.61498 75.298Z" fill="#EDB984"/>
<path d="M8.12701 70.018C6.63501 67.399 3.09798 60.337 3.59698 59.791C4.09598 59.246 10.022 69.167 10.685 70.875C11.348 72.583 8.12701 70.018 8.12701 70.018Z" fill="#EDB984"/>
<path d="M5.94199 72.285C3.80599 67.439 0.70302 59.614 1.08402 58.718C1.46502 57.822 7.40301 69.139 7.82401 70.353C8.24401 71.566 5.94199 72.285 5.94199 72.285Z" fill="#EDB984"/>
</g>
<path d="M35.158 67.439C34.215 66.027 28.934 67.302 28.518 68.583C28.167 69.663 26.721 72.157 32.004 79.952L34.523 79.763C34.523 79.763 36.1 68.851 35.158 67.439Z" fill="#E79B69"/>
<path d="M38.84 158.738C28.77 143.923 32.26 76.232 32.26 76.232L33.502 75.296C33.502 75.296 48.174 133.354 49.802 145.983C51.93 162.493 38.84 158.738 38.84 158.738Z" fill="#EDB984"/>
<path d="M48.448 148.028C42.672 148.835 35.307 130.544 31.7 106.772C31.887 126.772 33.338 150.644 38.84 158.738C38.84 158.738 51.194 162.278 49.943 147.333C49.477 147.714 48.979 147.953 48.448 148.028Z" fill="#E79B69"/>
<path d="M35.856 70.785C30.451 71.012 29.768 73.24 30.729 73.643C31.69 74.046 34.703 73.327 34.703 73.327L35.074 74.204C35.074 74.204 30.773 74.772 32.247 79.142L34.513 80.643C39.286 75.714 37.331 70.723 35.856 70.785Z" fill="#EDB984"/>
<path d="M30.211 70.256C29.96 68.384 29.366 67.696 28.756 67.778C28.146 67.859 27.753 68.679 28.003 70.551C28.254 72.423 28.849 73.11 29.459 73.029C30.068 72.947 30.461 72.128 30.211 70.256Z" fill="#EDB984"/>
<path d="M32.686 69.23C32.435 67.358 31.84 66.67 31.231 66.752C30.621 66.833 30.228 67.653 30.478 69.525C30.729 71.397 31.324 72.084 31.934 72.003C32.544 71.921 32.937 71.102 32.686 69.23Z" fill="#EDB984"/>
<path d="M35.558 68.864C35.307 66.992 34.713 66.304 34.103 66.386C33.493 66.467 33.1 67.287 33.35 69.159C33.601 71.031 34.196 71.718 34.806 71.637C35.416 71.556 35.808 70.736 35.558 68.864Z" fill="#EDB984"/>
</svg>
