<svg width="242" height="212" viewBox="0 0 242 212" fill="none" xmlns="http://www.w3.org/2000/svg">
<path d="M9.97104 76.352C3.79004 71.306 2.78104 59.448 3.53804 55.412C4.29504 51.375 15.017 47.969 18.045 49.862C21.073 51.754 26.118 66.892 26.497 69.667C26.874 72.442 12.758 78.628 9.97104 76.352Z" fill="#E79B69"/>
<path d="M12.4 68.058C9.61903 67.09 6.85903 67.004 4.72803 67.64C5.75603 71.018 7.41703 74.268 9.97003 76.352C11.402 77.521 15.822 76.452 19.733 74.763C19.117 72.116 16.311 69.419 12.4 68.058Z" fill="#EDB984"/>
<path d="M11.484 84.804L8.76904 75.22L25.487 67.27L30.785 78.371L11.484 84.804Z" fill="#EDB984"/>
<g opacity="0.8">
<path d="M67.368 65.313C64.261 57.964 68.909 47.009 71.464 43.793C74.019 40.578 85.091 42.576 86.883 45.664C88.676 48.752 86.064 64.493 85.102 67.123C84.14 69.753 68.769 68.627 67.368 65.313Z" fill="#E79B69"/>
<path d="M73.391 59.115C71.384 56.96 68.984 55.594 66.803 55.161C66.134 58.628 66.083 62.277 67.367 65.313C68.087 67.016 72.494 68.135 76.741 68.47C77.434 65.841 76.213 62.145 73.391 59.115Z" fill="#EDB984"/>
<path d="M64.757 73.493L66.835 63.75L85.329 64.533L84.827 76.823L64.757 73.493Z" fill="#EDB984"/>
<path d="M68.986 48.192C72.861 36.828 75.472 28.648 76.278 27.933C77.084 27.218 80.698 27.13 80.725 28.428C80.752 29.726 77.065 42.704 77.065 42.704C74.604 46.33 72.191 46.891 68.986 48.192Z" fill="#EDB984"/>
<path d="M87.258 50.75C89.136 40.535 90.445 31.019 89.96 30.071C89.475 29.123 86.486 27.892 85.983 29.095C85.481 30.299 83.17 43.351 83.17 43.351C83.215 47.32 85.671 48.24 87.258 50.75Z" fill="#EDB984"/>
<path d="M77.119 42.609C77.119 42.609 81.47 25.985 81.996 25.192C82.205 24.877 85.812 24.945 86.211 26.012C86.61 27.079 83.103 43.556 83.103 43.556C80.503 45.56 78.483 45.344 77.119 42.609Z" fill="#EDB984"/>
<path d="M84.971 67.91C88.749 62.511 91.892 53.733 90.992 51.117C90.092 48.501 81.217 46.665 79.172 47.296C77.126 47.927 76.998 51.14 77.995 51.953C78.992 52.766 85.066 53.692 85.066 53.692L84.87 54.873C84.87 54.873 79.387 55.072 77.306 60.007C75.224 64.942 82.056 72.077 84.971 67.91Z" fill="#EDB984"/>
<path d="M75.823 45.012L79.87 32.528L76.556 45.38L75.823 45.012Z" fill="#E79B69"/>
<path d="M82.256 44.997L85.223 32.359L83.008 45.324L82.256 44.997Z" fill="#E79B69"/>
<path d="M86.609 72.52L63.581 69.355L58.742 84.938L85.823 87.733L86.609 72.52Z" fill="#E0D5A9"/>
<path d="M60.338 75.73C50.536 96.47 50.484 127.652 53.357 139.622C56.23 151.592 88.365 143.73 88.365 143.73C88.365 143.73 91.528 109.338 87.426 79.306L60.338 75.73Z" fill="#C6AE47"/>
<path d="M60.429 148.851C57.424 136.683 62.248 100.142 70.658 77.092L60.338 75.73C50.536 96.47 42.586 133.077 45.459 145.047C46.631 149.929 55.733 153.959 63.763 155.062C62.323 153.97 60.84 150.513 60.429 148.851Z" fill="#B29A32"/>
</g>
<path d="M31.163 74.05L9.68701 82.944L13.376 98.838L38.164 87.579L31.163 74.05Z" fill="#E0D5A9"/>
<path d="M189.012 93.494L192.251 177.774C200.011 184.121 204.613 211.329 204.613 211.329H241.952C241.952 161.627 221.012 118.233 189.012 93.494Z" fill="#C6AE47"/>
<path d="M217.147 211.328C217.985 178.025 201.274 131.854 193.513 125.801L189.729 178.782C197.489 185.129 204.614 211.328 204.614 211.328H217.147Z" fill="#B29A32"/>
<path d="M125.378 82.374C88.382 86.56 27.143 134.724 26.622 139.426C26.1 144.128 34.213 172.554 50.106 169.329C57.202 167.889 97.473 161.172 107.229 146.742C119.325 128.852 125.378 82.374 125.378 82.374Z" fill="#C6AE47"/>
<path d="M97.285 121.217C77.83 130.448 45.285 156.968 30.943 154.83C34.82 163.102 41.255 171.123 50.106 169.328C57.202 167.888 97.473 161.171 107.229 146.741C111.4 140.572 114.852 131.003 117.586 121.113C108.755 129.863 110.622 114.889 97.285 121.217Z" fill="#B29A32"/>
<path d="M83.7661 210.571L196.036 211.309C198.145 179.452 208.507 113.359 192.756 97.04C177.776 81.52 153.399 75.091 153.399 75.091C153.399 75.091 119.278 76.26 100.922 102.843C88.128 121.372 83.7661 210.571 83.7661 210.571Z" fill="#C6AE47"/>
<path d="M192.756 97.04C177.776 81.52 153.399 75.091 153.399 75.091C153.399 75.091 139.79 75.646 125.093 82.506C131.731 87.914 143.36 93.117 157.125 96.28C171.587 99.604 184.91 99.874 193.187 97.555C193.04 97.389 192.907 97.197 192.756 97.04Z" fill="#B29A32"/>
<path d="M202.309 135.836C201.838 129.207 200.608 129.334 200.608 132.235C200.608 163.758 193.508 192.333 181.568 211.215L197.549 211.31C199.005 189.312 204.297 162.823 202.309 135.836Z" fill="#B29A32"/>
<path d="M90.974 133.932C85.49 166.494 82 210.572 82 210.572L110.195 210.746C98.59 192.134 91.181 164.663 90.974 133.932Z" fill="#B29A32"/>
<path d="M153.398 74.082C153.398 74.082 144.342 75.467 133.031 79.323C138.99 97.678 149.361 111.421 149.361 111.421C149.361 111.421 164.834 98.979 174.925 83.922C163.64 77.796 153.398 74.082 153.398 74.082Z" fill="#E0D5A9"/>
<path d="M10.105 90.083C12.115 112.934 27.812 139.877 36.334 148.76C44.857 157.642 68.627 134.632 68.627 134.632C68.627 134.632 53.994 103.348 35.292 79.495L10.105 90.083Z" fill="#C6AE47"/>
<path d="M47.099 153.156C38.362 144.17 24.079 110.192 19.701 86.049L10.105 90.083C12.115 112.934 23.733 148.547 32.256 157.429C35.732 161.052 45.624 159.935 53.112 156.833C51.318 156.619 48.293 154.384 47.099 153.156Z" fill="#B29A32"/>
<path d="M163.918 97.627C167.674 93.579 171.592 88.895 174.925 83.922C174.921 83.92 174.918 83.918 174.915 83.916C174.426 83.651 173.943 83.396 173.459 83.14C162.769 77.564 153.399 75.091 153.399 75.091C153.399 75.091 144.696 75.455 133.7 79.101C133.476 79.176 133.258 79.246 133.032 79.323C134.208 82.946 135.558 86.379 136.964 89.572C142.741 92.216 149.61 94.553 157.125 96.28C159.425 96.808 161.691 97.251 163.918 97.627Z" fill="#D1C18F"/>
<path d="M165.271 56.661L142.068 55.665L139.974 77.589C142.532 86.949 159.769 88.027 167.401 80.011L165.271 56.661Z" fill="#D27558"/>
<path d="M141.338 46.082C139.323 41.582 135.4 38.638 132.575 39.506C129.75 40.374 129.094 44.726 131.108 49.226C133.123 53.726 137.046 56.67 139.871 55.802C142.696 54.934 143.352 50.582 141.338 46.082Z" fill="#EDB984"/>
<path d="M139.503 46.381C138.157 43.336 135.603 41.318 133.797 41.873C131.991 42.428 131.619 45.348 132.964 48.393C134.31 51.438 136.864 53.456 138.67 52.901C140.476 52.345 140.849 49.426 139.503 46.381Z" fill="#D27558"/>
<path d="M140.682 48.847C139.774 46.819 138.006 45.492 136.733 45.884C135.46 46.275 135.164 48.236 136.072 50.264C136.98 52.292 138.748 53.619 140.021 53.227C141.294 52.835 141.59 50.875 140.682 48.847Z" fill="#EDB984"/>
<path d="M168.447 49.78C170.462 45.28 174.385 42.336 177.21 43.204C180.035 44.072 180.692 48.424 178.677 52.924C176.662 57.424 172.739 60.368 169.914 59.5C167.089 58.632 166.432 54.28 168.447 49.78Z" fill="#EDB984"/>
<path d="M170.023 50.199C171.347 47.245 173.923 45.31 175.777 45.875C177.631 46.441 178.061 49.294 176.737 52.248C175.413 55.202 172.837 57.138 170.984 56.572C169.129 56.005 168.699 53.152 170.023 50.199Z" fill="#D27558"/>
<path d="M169.367 52.047C170.305 49.955 172.129 48.583 173.442 48.984C174.755 49.385 175.06 51.406 174.122 53.498C173.184 55.59 171.36 56.961 170.047 56.561C168.734 56.16 168.429 54.139 169.367 52.047Z" fill="#EDB984"/>
<path d="M180.401 11.477C177.429 4.43399 172.971 9.50499 172.971 9.50499C172.971 9.50499 175.051 5.84299 169.107 1.61699C163.163 -2.60901 156.326 3.87099 156.326 3.87099C146.518 2.74399 140.573 11.195 140.573 11.195C132.845 14.857 134.629 25.844 134.629 25.844C134.629 25.844 135.075 42.077 141.187 63.498L164.648 66.41C173.082 53.804 176.537 34.013 176.537 34.013C176.537 34.013 183.374 18.519 180.401 11.477Z" fill="#823830"/>
<path d="M142.357 18.801C139.049 24.132 135.392 62.816 140.277 70.917C141.49 72.929 146.479 76.289 152.515 76.857C158.311 77.402 165.14 75.241 167.324 73.171C171.782 68.945 174.494 26.784 172.079 20.491C169.702 14.294 145.33 14.012 142.357 18.801Z" fill="#EDB984"/>
<path d="M162.596 42.91C162.93 41.126 164.15 39.946 165.32 40.274C166.49 40.602 167.168 42.315 166.834 44.099C166.5 45.883 165.28 47.063 164.11 46.735C162.94 46.407 162.262 44.694 162.596 42.91Z" fill="#5A4949"/>
<path d="M163.26 32.845L170.32 35.451C170.913 35.67 171.248 36.293 171.068 36.844L170.387 38.919C170.206 39.469 169.578 39.738 168.984 39.519L161.924 36.913C161.33 36.694 160.996 36.071 161.176 35.521L161.857 33.446C162.038 32.894 162.666 32.626 163.26 32.845Z" fill="#823830"/>
<path d="M145.215 41.395C145.359 39.596 146.452 38.31 147.656 38.523C148.861 38.736 149.721 40.367 149.577 42.166C149.433 43.965 148.34 45.251 147.136 45.038C145.932 44.825 145.072 43.194 145.215 41.395Z" fill="#5A4949"/>
<path d="M143.288 31.562L150.999 31.255C151.647 31.229 152.197 31.698 152.226 32.302L152.337 34.581C152.366 35.185 151.864 35.696 151.216 35.722L143.505 36.029C142.857 36.055 142.307 35.586 142.278 34.982L142.167 32.703C142.137 32.098 142.639 31.587 143.288 31.562Z" fill="#823830"/>
<path d="M154.346 45.119C153.657 48.741 153.564 51.672 154.934 53.068C155.743 53.893 156.662 53.805 157.301 53.572L157.332 53.662C157.332 53.662 155.298 55.283 153.791 54.004C152.167 52.625 152.922 49.19 154.346 45.119Z" fill="#D27558"/>
<path d="M147.649 58.378L161.423 60.463C161.423 60.463 160.735 67.432 153.855 66.739C148.378 66.187 147.649 58.378 147.649 58.378Z" fill="#3E2D34"/>
<path d="M149.403 61.913C148.671 60.473 148.616 58.923 148.616 58.923L160.657 60.773C160.657 60.773 160.169 62.085 158.636 63.14L149.403 61.913Z" fill="#F9EDDB"/>
<path d="M155.063 68.799C155.116 68.49 154.095 68.495 152.824 68.277C151.554 68.059 150.515 67.7 150.462 68.009C150.409 68.318 151.361 69.178 152.632 69.396C153.903 69.615 155.01 69.108 155.063 68.799Z" fill="#D27558"/>
<g opacity="0.43">
<path d="M200.873 178.82L85.67 172.99C85.349 175.834 85.0481 178.601 84.7661 181.27L199.969 187.1C200.276 184.375 200.581 181.616 200.873 178.82Z" fill="#FFF7D0"/>
<path d="M202.629 155.093L87.757 155.788C87.387 158.621 87.03 161.451 86.691 164.25L201.995 166.584C202.283 162.792 202.504 158.959 202.629 155.093Z" fill="#FFF7D0"/>
</g>
<path d="M35.208 34.215C38.135 31.032 41.864 30.286 44.477 30.22C48.152 30.129 51.976 31.399 53.993 33.382L52.932 34.461C51.189 32.748 47.807 31.652 44.515 31.734C42.194 31.791 38.89 32.447 36.322 35.24L35.208 34.215Z" fill="#C45B7B"/>
<path d="M50.137 36.298L49.704 34.847L53.42 33.738L52.324 29.715L53.785 29.315L55.269 34.765L50.137 36.298Z" fill="#C45B7B"/>
<path d="M34.629 30.681L36.142 30.732L36.013 34.607L40.175 34.847L40.091 36.359L34.452 36.034L34.629 30.681Z" fill="#C45B7B"/>
<path d="M3.40203 60.459C1.51903 48.601 0.00502598 40.149 0.383026 39.14C0.762026 38.131 3.91503 36.365 4.54603 37.5C5.17703 38.635 7.98103 51.832 7.98103 51.832C7.49903 56.187 5.62803 57.811 3.40203 60.459Z" fill="#EDB984"/>
<path d="M20.752 54.183C17.64 44.274 14.351 35.249 13.479 34.637C12.607 34.025 9.38904 34.334 9.50704 35.632C9.62504 36.931 13.681 49.55 13.681 49.55C15.575 53.04 18.176 52.706 20.752 54.183Z" fill="#EDB984"/>
<path d="M7.98401 51.723C7.98401 51.723 4.06301 34.992 4.15801 34.046C4.19601 33.669 7.41601 32.044 8.26801 32.801C9.11901 33.558 13.718 49.764 13.718 49.764C12.355 52.75 10.467 53.503 7.98401 51.723Z" fill="#EDB984"/>
<path d="M26.748 70.424C27.565 63.885 26.243 54.656 24.225 52.764C22.207 50.872 13.503 53.395 11.989 54.909C10.475 56.423 11.863 59.324 13.124 59.576C14.386 59.828 20.188 57.81 20.188 57.81L20.566 58.945C20.566 58.945 15.811 61.683 16.277 67.018C16.744 72.353 26.117 75.469 26.748 70.424Z" fill="#EDB984"/>
<path d="M7.96103 54.452L5.70703 41.524L8.78103 54.435L7.96103 54.452Z" fill="#E79B69"/>
<path d="M13.642 51.434L10.36 38.874L14.459 51.372L13.642 51.434Z" fill="#E79B69"/>
</svg>
