<svg role="img" aria-label="Logo SG - C'est vous l'avenir" focusable="false" height="50" width="205" xmlns="http://www.w3.org/2000/svg" xmlns:xlink="http://www.w3.org/1999/xlink" version="1.1" x="0px" y="0px" viewBox="0 0 140.2 34.1" style="enable-background:new 0 0 140.2 34.1;" xml:space="preserve">
        <style type="text/css">
          .st0{fill:none;}
          .st1{fill:#E60028;}
          .st2{fill:#FFFFFF;}
        </style>
        <rect x="-10.1" y="-9.8" class="st0" width="160.2" height="53.9"></rect>
        <g>
          <path d="M9.1,15.6l1.3,0.3c3.2,0.7,4.6,2.1,4.6,4.6c0,3.1-2.3,4.8-6.6,4.8H2.8v-3.3c1.9,0.4,3.8,0.6,5.5,0.6c2.5,0,3.7-0.7,3.7-1.9   c0-1.3-0.6-1.7-3.4-2.3l-1.3-0.3c-3.2-0.6-4.6-2.1-4.6-4.6C2.7,10.6,5,8.9,9,8.9h5.1v3.3c-1.8-0.4-3.3-0.6-4.9-0.6   c-2.2,0-3.5,0.7-3.5,1.9C5.7,14.7,6.4,15.1,9.1,15.6z M31.3,17.1v8.2H26c-6,0-9.4-3-9.4-8.2c0-5.2,3.5-8.2,9.4-8.2h4.1v3.2   c-1.4-0.3-2.9-0.5-4.2-0.5c-3.8,0-6.1,2-6.1,5.5c0,3.4,2.3,5.4,6.1,5.4h2.5l0-5.4H31.3z"></path>
        </g>
        <rect x="38.2" y="3" class="st1" width="28.3" height="12.8"></rect>
        <rect x="38.2" y="18.5" width="28.3" height="12.8"></rect>
        <rect x="38.2" y="15.7" class="st2" width="28.3" height="2.8"></rect>
      </svg>