<svg width="131" height="193" viewBox="0 0 131 193" fill="none" xmlns="http://www.w3.org/2000/svg">
<path d="M29.106 69.857C69.614 89.716 118.597 74.304 118.597 74.304C118.597 74.304 119.112 -7.65798 73.965 1.85902C35.336 -11.072 29.106 69.857 29.106 69.857Z" fill="#A3333B"/>
<path d="M90.783 77.848C111.312 86.968 126.831 146.21 128.376 158.007C129.112 163.63 117.353 168.219 113.026 156.009C108.699 143.799 99.398 116.136 94.673 111.388C89.948 106.64 90.783 77.848 90.783 77.848Z" fill="#EDB984"/>
<path d="M90.783 77.848C90.783 77.848 90.676 81.586 90.758 86.583C94.174 86.608 97.502 86.513 100.717 86.298C97.577 82.365 94.252 79.389 90.783 77.848Z" fill="#E79B69"/>
<path d="M93.917 113.111C98.711 117.703 108.412 144.455 112.915 156.263C115.028 161.804 118.718 163.741 121.962 163.703C120.281 153.086 107.115 106.863 89.703 90.812C90.044 99.267 91.045 110.359 93.917 113.111Z" fill="#E79B69"/>
<path d="M58.639 75.685C37.892 84.556 20.956 142.179 19.129 153.655C18.258 159.124 29.908 163.588 34.527 151.712C39.146 139.835 49.108 112.929 53.947 108.31C58.786 103.691 58.639 75.685 58.639 75.685Z" fill="#EDB984"/>
<path d="M58.639 75.685C56.109 76.767 53.636 78.578 51.24 80.938C53.593 81.619 56.013 82.253 58.508 82.826C58.653 78.663 58.639 75.685 58.639 75.685Z" fill="#E79B69"/>
<path d="M26.353 159.155C29.428 158.841 32.722 156.867 34.737 152.073C39.507 140.726 49.895 114.785 54.851 110.436C58.96 106.831 59.913 86.915 60.12 80.213C41.514 98.979 27.928 148.529 26.384 158.78C26.365 158.905 26.359 159.03 26.353 159.155Z" fill="#E79B69"/>
<path d="M49.258 192.399H110.248L96.146 125.325L59.101 125.245L49.258 192.399Z" fill="#FF3E4C"/>
<path d="M78.061 150.893C92.633 150.984 105.955 168.711 108.358 192.399H110.248L96.146 125.325L59.101 125.245L49.258 192.399H50.557C51.241 168.514 63.424 150.801 78.061 150.893Z" fill="#D12439"/>
<path d="M58.639 75.685C49.938 98.669 47.336 131.688 48.815 135.215C50.294 138.742 102.174 137.597 103.653 134.775C105.132 131.954 93.995 82.145 91.776 78.618C89.558 75.091 59.712 72.852 58.639 75.685Z" fill="#FF3E4C"/>
<path d="M94.301 86.653C93.181 82.401 92.264 79.392 91.776 78.618C91.649 78.416 91.422 78.22 91.125 78.027C90.982 77.934 90.817 77.843 90.639 77.753C90.623 77.745 90.609 77.736 90.592 77.728C90.419 77.642 90.227 77.558 90.025 77.475C89.995 77.463 89.968 77.45 89.938 77.438C89.737 77.357 89.519 77.278 89.291 77.2C89.251 77.186 89.212 77.172 89.171 77.158C88.943 77.081 88.701 77.006 88.45 76.932C88.4 76.917 88.352 76.902 88.301 76.888C88.049 76.815 87.785 76.744 87.511 76.673C87.453 76.658 87.395 76.643 87.336 76.628C87.062 76.559 86.778 76.491 86.486 76.424C86.42 76.409 86.353 76.394 86.286 76.379C85.991 76.313 85.688 76.249 85.377 76.186C85.308 76.172 85.237 76.158 85.168 76.144C84.85 76.081 84.526 76.019 84.194 75.959C84.127 75.947 84.059 75.935 83.991 75.923C83.652 75.862 83.308 75.803 82.957 75.746C82.889 75.735 82.821 75.724 82.753 75.713C82.395 75.656 82.034 75.599 81.665 75.545C81.605 75.536 81.545 75.528 81.485 75.519C81.104 75.464 80.719 75.409 80.328 75.358C80.288 75.353 80.247 75.348 80.207 75.343C78.026 75.057 75.721 74.827 73.46 74.667C73.447 74.666 73.434 74.665 73.421 74.664C73.087 74.64 72.755 74.62 72.423 74.599C72.28 74.59 72.137 74.58 71.994 74.572C71.707 74.555 71.423 74.541 71.139 74.527C70.956 74.518 70.772 74.508 70.59 74.499C70.334 74.487 70.082 74.478 69.829 74.468C69.622 74.46 69.415 74.452 69.211 74.445C68.979 74.438 68.753 74.432 68.525 74.427C68.308 74.422 68.091 74.416 67.877 74.413C67.664 74.409 67.455 74.407 67.246 74.405C67.027 74.403 66.808 74.401 66.593 74.401C66.396 74.401 66.203 74.402 66.011 74.403C65.796 74.405 65.582 74.407 65.373 74.411C65.189 74.414 65.008 74.419 64.829 74.423C64.625 74.428 64.423 74.435 64.226 74.443C64.055 74.45 63.887 74.457 63.722 74.465C63.529 74.475 63.341 74.486 63.156 74.498C63 74.508 62.846 74.519 62.697 74.53C62.517 74.544 62.344 74.56 62.174 74.577C62.035 74.59 61.896 74.604 61.764 74.619C61.599 74.638 61.445 74.659 61.291 74.68C61.169 74.697 61.046 74.713 60.932 74.732C60.785 74.756 60.65 74.782 60.515 74.809C60.412 74.829 60.306 74.848 60.211 74.87C60.083 74.899 59.97 74.932 59.856 74.964C59.774 74.987 59.686 75.009 59.612 75.034C59.504 75.07 59.415 75.109 59.323 75.148C59.263 75.173 59.195 75.197 59.143 75.224C59.055 75.269 58.989 75.318 58.922 75.367C58.888 75.392 58.843 75.414 58.815 75.44C58.732 75.516 58.672 75.596 58.639 75.681L58.637 75.684C57.834 77.804 57.084 80.01 56.384 82.27C61.899 84.316 68.373 85.867 75.391 86.65C82.17 87.408 88.615 87.359 94.301 86.653Z" fill="#D12439"/>
<path d="M60.796 74.758C56.969 97.004 56.859 118.997 57.882 120.02C59.073 121.211 91.386 120.87 93.087 119.17C94.27 117.987 90.025 92.218 87.329 76.627C80.059 74.797 66.154 73.834 60.796 74.758Z" fill="#EDB984"/>
<path d="M94.601 87.349C97.778 103.081 101.906 129.839 100.824 131.866C99.339 134.649 52.197 136.666 50.726 133.187C49.712 130.79 49.871 113.311 52.93 95.254C48.593 114.396 47.137 133.637 48.229 136.241C49.708 139.768 103.274 138.402 104.753 135.581C105.892 133.407 98.89 102.867 94.601 87.349Z" fill="#D12439"/>
<path d="M117.717 192.399H130.014C130.631 178.876 130.462 165.527 128.326 157.476C127.41 154.024 124.023 151.82 120.621 152.691C117.454 153.501 114.292 156.455 114.615 165.15C114.787 169.805 116.102 180.54 117.717 192.399Z" fill="#EDB984"/>
<path d="M120.401 152.756C117.309 153.647 114.299 156.655 114.614 165.149C114.787 169.805 116.102 180.54 117.716 192.398H123.11C123.325 189.056 123.446 185.533 123.446 181.878C123.447 170.151 122.261 159.674 120.401 152.756Z" fill="#E79B69"/>
<path d="M11.359 68.098C10.141 66.557 4.16799 68.518 3.80699 70.034C3.50199 71.313 2.36399 74.58 9.18199 83.08L11.772 82.371C11.772 82.371 12.577 69.64 11.359 68.098Z" fill="#E79B69"/>
<path d="M21.908 158.58C10.682 144.621 8.729 76.868 8.729 76.868L9.892 75.835C9.892 75.835 29.176 132.528 31.812 144.986C35.257 161.272 21.908 158.58 21.908 158.58Z" fill="#EDB984"/>
<path d="M30.626 147.133C24.933 148.401 16.124 130.76 10.622 107.354C12.413 127.274 15.775 150.953 21.909 158.58C21.909 158.58 34.508 161.118 32.061 146.321C31.625 146.737 31.148 147.016 30.626 147.133Z" fill="#E79B69"/>
<path d="M10.854 74.57C10.854 74.57 6.88599 77.013 8.99099 81.916L11.743 83.437C13.14 81.662 13.166 77.424 14.834 75.99C16.164 74.845 13.136 73.891 10.854 74.57Z" fill="#EDB984"/>
<path d="M18.45 70.97C17.146 71.095 13.767 73.545 13.767 73.545L11.838 74.323L13.286 76.838C19.729 73.547 19.755 70.845 18.45 70.97Z" fill="#EDB984"/>
<path d="M7.69501 70.259C7.29601 68.419 6.57201 67.8 5.87701 67.951C5.18101 68.102 4.77801 68.964 5.17601 70.805C5.57401 72.646 6.29901 73.263 6.99501 73.112C7.69101 72.962 8.09401 72.1 7.69501 70.259Z" fill="#EDB984"/>
<path d="M9.758 69.36C9.295 67.224 8.545 66.486 7.85 66.637C7.154 66.788 6.776 67.769 7.239 69.905C7.702 72.041 8.388 72.309 9.084 72.158C9.779 72.009 10.221 71.497 9.758 69.36Z" fill="#EDB984"/>
<path d="M10.215 61.238C9.75201 59.102 9.05201 58.336 8.35601 58.487C7.66001 58.638 7.58701 59.446 8.05001 61.582C8.24101 62.465 9.22601 68.433 9.49201 68.874C9.86901 69.499 10.295 69.716 10.703 69.628C11.125 69.537 11.429 69.141 11.501 68.367C11.548 67.864 10.397 62.08 10.215 61.238Z" fill="#EDB984"/>
<path d="M3.04199 64.769C2.25999 62.728 1.45199 62.078 0.786988 62.333C0.121988 62.588 0.172991 63.398 0.954991 65.439C1.27799 66.283 3.15899 72.031 3.48799 72.427C3.95499 72.988 4.40999 73.138 4.79999 72.988C5.20299 72.834 5.44399 72.396 5.39699 71.621C5.36699 71.116 3.34999 65.574 3.04199 64.769Z" fill="#EDB984"/>
<path d="M87.328 76.626C80.067 74.798 66.163 73.833 60.797 74.753C60.301 77.635 59.865 80.513 59.488 83.342C64.275 84.859 69.654 86.011 75.393 86.652C80.18 87.186 84.797 87.314 89.105 87.099C88.488 83.381 87.876 79.795 87.328 76.626Z" fill="#E79B69"/>
<path d="M81.503 48.116L68.452 46.217L66.635 74.737C66.306 82.926 82.509 83.576 82.837 75.388L81.503 48.116Z" fill="#D27558"/>
<path d="M75.508 72.671C55.596 62.783 56.312 44.485 56.433 33.951C56.554 23.417 63.752 15.983 74.786 15.983C85.821 15.983 93.068 22.153 92.869 39.428C92.618 61.338 75.508 72.671 75.508 72.671Z" fill="#EDB984"/>
<path d="M55.303 46.061C54.422 43.087 52.792 40.869 51.662 41.107C50.532 41.345 50.331 43.95 51.212 46.925C52.093 49.899 53.723 52.117 54.853 51.879C55.983 51.64 56.184 49.035 55.303 46.061Z" fill="#EDB984"/>
<path d="M93.839 46.061C94.72 43.087 96.35 40.869 97.48 41.107C98.61 41.346 98.811 43.95 97.93 46.925C97.049 49.9 95.419 52.117 94.289 51.879C93.16 51.64 92.958 49.035 93.839 46.061Z" fill="#EDB984"/>
<path d="M68.869 42.497C68.709 40.453 67.349 38.816 65.831 38.841C64.314 38.866 63.214 40.544 63.374 42.588C63.534 44.632 64.894 46.269 66.412 46.244C67.929 46.219 69.029 44.542 68.869 42.497Z" fill="#5A4949"/>
<path d="M67.69 33.647L61.973 35.142C61.492 35.268 61.222 35.645 61.369 35.986L61.923 37.27C62.07 37.611 62.579 37.785 63.06 37.659L68.777 36.164C69.258 36.038 69.528 35.661 69.381 35.32L68.827 34.036C68.68 33.695 68.171 33.521 67.69 33.647Z" fill="#A3333B"/>
<path d="M85.51 42.762C85.361 40.932 84.031 39.467 82.542 39.491C81.052 39.514 79.965 41.017 80.115 42.847C80.265 44.677 81.594 46.141 83.084 46.118C84.573 46.095 85.66 44.592 85.51 42.762Z" fill="#5A4949"/>
<path d="M87.023 35.836L81.554 33.583C81.094 33.394 80.573 33.498 80.389 33.817L79.696 35.018C79.512 35.337 79.736 35.748 80.196 35.938L85.665 38.191C86.125 38.38 86.647 38.276 86.83 37.957L87.523 36.756C87.707 36.437 87.483 36.025 87.023 35.836Z" fill="#A3333B"/>
<path d="M73.01 49.762C72.165 49.409 71.587 48.645 71.226 48.004L71.164 48.01C71.164 48.01 71.88 50.142 73.259 50.797C74.623 51.445 75.819 50.079 77.398 47.515C75.704 49.4 74.364 50.328 73.01 49.762Z" fill="#D27558"/>
<path d="M80.538 55.154L68.474 55.188C68.474 55.188 68.559 60.087 74.105 61.423C79.65 62.76 80.538 55.154 80.538 55.154Z" fill="#3E2D34"/>
<path d="M78.521 58.639C79.26 57.239 79.44 55.703 79.44 55.703L69.7 55.731C69.7 55.731 69.732 57.129 70.694 58.49L78.521 58.639Z" fill="#F9EDDB"/>
<path d="M64.418 32.113C71.623 25.053 75.337 16.217 72.713 12.379C70.089 8.54001 62.122 11.152 54.917 18.213C47.712 25.273 43.998 34.109 46.622 37.947C49.245 41.785 57.213 39.173 64.418 32.113Z" fill="#A3333B"/>
<path d="M78.643 26.465C84.206 34.88 92.175 40.205 96.442 38.358C100.709 36.511 99.658 28.193 94.095 19.778C88.532 11.363 80.563 6.03802 76.296 7.88502C72.029 9.73202 73.08 18.05 78.643 26.465Z" fill="#A3333B"/>
<path d="M87.328 76.626C87.144 76.58 86.939 76.536 86.747 76.491C89.27 92.169 93.006 116.656 91.929 117.808C90.34 119.509 60.148 119.849 59.036 118.658C58.098 117.654 58.183 96.462 61.563 74.651C61.298 74.684 61.029 74.716 60.796 74.756C56.969 97.002 56.859 118.995 57.882 120.018C59.073 121.209 91.386 120.868 93.087 119.168C94.269 117.987 90.024 92.218 87.328 76.626Z" fill="#E79B69"/>
<path d="M74.719 111.006C74.889 111.856 72.848 120.36 72.848 120.36L77.95 120.02L74.719 111.006Z" fill="#E79B69"/>
</svg>
