<svg width="201" height="198" viewBox="0 0 201 198" fill="none" xmlns="http://www.w3.org/2000/svg">
<path d="M130.272 87.512C156.283 97.778 193.154 134.649 195.955 140.63C198.802 146.707 197.642 150.414 193.369 151.267C187.79 152.381 141.79 114.258 135.713 112.769C129.5 111.246 130.272 87.512 130.272 87.512Z" fill="#976EB7"/>
<path d="M190.557 149.738C187.957 144.187 156.009 112.036 130.633 99.236C131.199 105.462 132.55 111.993 135.713 112.768C141.244 114.123 179.831 145.81 190.932 150.66C190.803 150.35 190.708 150.062 190.557 149.738Z" fill="#7F5AA3"/>
<path d="M175.653 159.022C173.633 146.085 181.119 137.889 188.53 135.825C188.53 135.825 201.865 135.407 200.244 147.891C198.944 157.897 175.653 159.022 175.653 159.022Z" fill="#EFEDCB"/>
<path d="M181.526 144.657C178.026 146.522 149.743 183.586 143.315 197.387L144.041 197.763C144.041 197.763 196.619 153.164 196.554 148.321C196.489 143.496 185.06 142.773 181.526 144.657Z" fill="#EDB984"/>
<path d="M146.265 195.867C150.365 187.907 156.473 178.678 164.067 169.417C173.086 158.416 182.448 149.492 190.277 143.965C186.986 143.431 183.282 143.722 181.527 144.657C178.027 146.523 149.744 183.586 143.316 197.387L144.042 197.763C144.042 197.763 144.852 197.075 146.265 195.867Z" fill="#E79B69"/>
<path d="M63.873 74.588C87.658 97.698 132.191 95.674 156.145 79.649C156.145 79.649 154.795 29.718 138.939 15.548C123.082 1.378 108.545 0.0900069 106.551 0.704007C89.008 6.10101 62.017 51.478 63.873 74.588Z" fill="#7D4230"/>
<path d="M100.444 85.74C77.283 98.458 45.908 145.269 43.883 152.1C41.859 158.932 40.847 162.727 46.413 162.727C51.98 162.727 90.946 116.422 96.007 114.398C101.068 112.374 100.444 85.74 100.444 85.74Z" fill="#976EB7"/>
<path d="M48.784 159.051C48.442 160.181 48.133 161.22 47.875 162.179C56.909 157.333 91.689 117.968 96.472 116.256C99.46 115.187 100.484 105.631 100.82 97.876C78.175 112.963 50.684 152.774 48.784 159.051Z" fill="#7F5AA3"/>
<path d="M88.341 197.73H143.991L135.658 130.255L97.269 130.592L88.341 197.73Z" fill="#976EB7"/>
<path d="M115.883 158.158C130.268 158.158 141.943 175.8 142.251 197.73H143.991L135.658 130.255L97.269 130.592L88.341 197.729H89.516C89.824 175.8 101.499 158.158 115.883 158.158Z" fill="#7F5AA3"/>
<path d="M99.466 86.396C91.527 108.383 84.453 142.063 85.802 145.436C87.151 148.81 146.529 147.123 147.879 144.424C149.228 141.725 133.878 91.794 131.854 88.42C129.83 85.047 100.445 83.686 99.466 86.396Z" fill="#976EB7"/>
<path d="M137.143 102.518C141.214 118.928 145.984 141.048 145.18 142.829C143.933 145.59 89.242 147.296 87.752 143.845C86.647 141.286 89.74 121.382 94.303 102.092C88.26 121.992 83.2289 143.808 84.2849 146.448C85.6339 149.822 148.386 148.135 149.736 145.436C150.664 143.578 142.795 118.844 137.143 102.518Z" fill="#7F5AA3"/>
<path d="M146.824 96.418C141.533 92.971 136.305 90.042 131.428 87.998C127.415 84.997 101.436 83.849 99.566 86.256C95.324 88.718 90.825 92.28 86.297 96.485C93.534 99.855 104.364 102 116.483 102C128.685 102 139.587 99.828 146.824 96.418Z" fill="#7F5AA3"/>
<path d="M101.404 85.495C105.093 106.318 115.659 118.615 115.659 118.615C115.659 118.615 125.091 102.888 128.331 86.784C121.446 85.045 106.708 84.403 101.404 85.495Z" fill="#DFCCF2"/>
<path d="M43.968 138.352C56.113 143.244 59.318 153.871 57.294 161.293C57.294 161.293 50.8231 172.959 40.9311 165.173C33.0031 158.932 43.968 138.352 43.968 138.352Z" fill="#EFEDCB"/>
<g opacity="0.8">
<path d="M43.484 72.982C53.904 75.682 57.87 77.344 57.505 78.208C56.601 80.349 43.511 76.157 43.511 76.157C42.222 76.269 42.194 73.094 43.484 72.982Z" fill="#E79B69"/>
<path d="M53.793 154.198C54.485 150.599 43.694 104.077 36.449 89.923L34.429 91.932C34.429 91.932 38.301 158.966 42.009 161.941C45.714 164.915 53.101 157.796 53.793 154.198Z" fill="#EDB984"/>
<path d="M52.929 148.186C52.29 149.296 51.509 149.934 50.583 150.001C46.461 150.297 40.806 139.364 36.687 124.091C38.134 141.754 40.093 160.404 42.01 161.942C45.715 164.915 53.101 157.797 53.793 154.198C53.924 153.516 53.595 151.345 52.929 148.186Z" fill="#E79B69"/>
<path d="M34.501 95.155C30.136 85.306 32.173 80.206 34.095 76.736C35.343 74.483 40.337 72.34 43.087 72.881C44.574 73.173 45.732 74.7 44.545 76.395C42.006 80.02 42.27 82.276 43.429 84.51C46.193 89.839 35.339 97.046 34.501 95.155Z" fill="#E79B69"/>
<path d="M39.022 89.869C37.862 85.456 33.678 84.359 31.903 84.667C31.903 87.424 32.585 90.831 34.501 95.155C34.772 95.765 36.089 95.419 37.652 94.503C39.533 93.391 39.251 90.74 39.022 89.869Z" fill="#EDB984"/>
<path d="M42.451 72.878C44.971 72.59 56.238 77.346 55.086 79.238C54.593 80.047 41.57 75.869 41.57 75.869C40.147 74.537 41.066 73.628 42.451 72.878Z" fill="#EDB984"/>
<path d="M37.92 94.458C42.281 91.833 46.679 87.001 47.585 85.061C48.491 83.121 54.812 82.001 55.634 80.842C56.457 79.683 56.177 78.316 54.139 78.038C52.101 77.76 46.647 80.736 41.833 82.259C36.382 83.985 37.92 94.458 37.92 94.458Z" fill="#EDB984"/>
<path d="M40.956 75.495C42.175 74.472 42.702 73.111 42.134 72.456C41.566 71.801 40.118 72.1 38.899 73.124C37.68 74.148 37.343 75.081 37.911 75.736C38.479 76.391 39.737 76.519 40.956 75.495Z" fill="#E79B69"/>
<path d="M37.485 76.734C38.704 75.71 39.231 74.35 38.663 73.695C38.095 73.04 36.647 73.339 35.428 74.363C34.209 75.386 33.216 78.141 33.784 78.796C34.352 79.451 36.266 77.758 37.485 76.734Z" fill="#E79B69"/>
<path d="M42.512 76.577C42.891 74.27 42.504 72.285 41.649 72.145C40.794 72.005 39.794 73.762 39.415 76.069C39.037 78.376 39.56 79.811 40.415 79.951C41.27 80.092 42.134 78.885 42.512 76.577Z" fill="#EDB984"/>
<path d="M39.05 77.974C39.428 75.667 39.042 73.682 38.187 73.542C37.332 73.402 36.332 75.159 35.953 77.466C35.574 79.773 35.86 81.11 36.715 81.251C37.571 81.391 38.672 80.281 39.05 77.974Z" fill="#EDB984"/>
</g>
<path d="M50.552 150.581C49.843 146.985 22.385 107.911 10.359 97.51L9.23999 100.13C9.23999 100.13 37.981 160.813 42.535 162.18C47.085 163.545 51.261 154.176 50.552 150.581Z" fill="#EDB984"/>
<path d="M128.168 86.748C127.83 86.665 127.475 86.584 127.102 86.506C126.926 86.469 126.739 86.434 126.556 86.398C126.296 86.347 126.031 86.298 125.758 86.249C125.563 86.214 125.368 86.18 125.167 86.147C124.754 86.079 124.331 86.013 123.895 85.95C123.703 85.922 123.505 85.897 123.309 85.87C122.977 85.825 122.642 85.781 122.299 85.739C122.083 85.712 121.865 85.686 121.645 85.661C121.251 85.616 120.851 85.573 120.447 85.532C120.238 85.511 120.03 85.49 119.819 85.47C119.371 85.427 118.919 85.387 118.464 85.35C118.255 85.333 118.044 85.316 117.834 85.3C117.421 85.268 117.007 85.239 116.591 85.211C116.432 85.201 116.274 85.189 116.115 85.179C115.568 85.145 115.021 85.116 114.476 85.089C114.296 85.08 114.117 85.073 113.938 85.065C113.508 85.046 113.08 85.03 112.654 85.016C112.499 85.011 112.342 85.005 112.188 85.001C111.635 84.985 111.088 84.974 110.549 84.967C110.426 84.965 110.306 84.965 110.185 84.964C109.743 84.96 109.308 84.959 108.88 84.961C108.734 84.962 108.588 84.962 108.444 84.963C107.925 84.968 107.415 84.976 106.924 84.991C106.861 84.993 106.803 84.996 106.741 84.998C106.303 85.012 105.879 85.03 105.468 85.052C105.346 85.059 105.225 85.065 105.105 85.072C104.676 85.097 104.26 85.127 103.869 85.161C103.844 85.163 103.816 85.165 103.791 85.167C103.385 85.204 103.009 85.248 102.65 85.295C102.549 85.308 102.452 85.322 102.355 85.336C102.073 85.377 101.809 85.421 101.563 85.469C101.512 85.479 101.456 85.488 101.406 85.498C102.482 91.569 104.147 96.891 105.96 101.419C109.317 101.784 112.831 102 116.485 102C118.989 102 121.42 101.887 123.794 101.712C125.6 97.117 127.288 91.978 128.332 86.791C128.275 86.777 128.225 86.762 128.168 86.748Z" fill="#CAB5E2"/>
<path d="M119.708 56.876H105.37L106.592 84.937C106.982 91.3 121.842 91.699 121.452 85.337L119.708 56.876Z" fill="#D27558"/>
<path d="M94.405 35.116C94.405 59.407 99.718 73.094 114.226 80.746C127.889 75.119 133.962 60.377 132.984 31.737C132.475 16.825 94.405 24.193 94.405 35.116Z" fill="#EDB984"/>
<path d="M118.425 18.425C120.412 28.981 95.084 37.121 91.595 59.513C91.595 59.513 78.652 38.756 89.402 24.929C101.498 9.369 116.71 9.31201 118.425 18.425Z" fill="#7D4230"/>
<path d="M93.063 52.28C91.985 49.506 90.174 47.825 89.019 48.524C87.864 49.223 87.801 52.039 88.88 54.813C89.958 57.587 91.769 59.268 92.924 58.569C94.078 57.869 94.141 55.054 93.063 52.28Z" fill="#EDB984"/>
<path d="M138.28 54.544C139.373 51.776 139.187 49.312 137.864 49.041C136.541 48.77 134.583 50.794 133.489 53.561C132.396 56.329 132.582 58.793 133.905 59.064C135.228 59.335 137.187 57.312 138.28 54.544Z" fill="#EDB984"/>
<path d="M107.218 48.907C107.249 46.666 106.144 44.762 104.745 44.647C103.34 44.532 102.166 46.264 102.128 48.52C102.09 50.783 103.207 52.702 104.619 52.801C106.025 52.9 107.186 51.154 107.218 48.907Z" fill="#5A4949"/>
<path d="M126.147 48.685C126.147 46.33 125.108 44.337 123.822 44.229C122.53 44.12 121.475 45.95 121.468 48.321C121.461 50.699 122.512 52.706 123.81 52.798C125.102 52.891 126.147 51.046 126.147 48.685Z" fill="#5A4949"/>
<path d="M109.848 41.112L101.84 39.305C100.837 39.079 99.828 39.723 99.589 40.745L99.115 42.775C98.875 43.8 99.501 44.806 100.509 45.021L108.555 46.737C109.525 46.944 110.495 46.299 110.724 45.298L111.179 43.315C111.408 42.316 110.813 41.33 109.848 41.112Z" fill="#7D4230"/>
<path d="M124.985 39.452L119.149 41.728C118.424 42.011 118.161 42.927 118.564 43.776L119.365 45.464C119.77 46.318 120.689 46.775 121.415 46.485L127.26 44.152C127.971 43.868 128.215 42.958 127.808 42.12L127.003 40.461C126.597 39.627 125.695 39.176 124.985 39.452Z" fill="#7D4230"/>
<path d="M116.949 54.765C116.949 54.765 116.582 54.697 116.039 54.632C115.357 56.749 113.628 59.678 110.922 55.563C110.868 55.626 110.787 55.667 110.743 55.739C114.642 63.138 116.753 56.365 116.949 54.765Z" fill="#D27558"/>
<path d="M116.041 67.834C116.041 66.576 115.323 65.557 114.438 65.557C113.553 65.557 112.836 66.577 112.836 67.834C112.836 69.092 113.553 70.111 114.438 70.111C115.324 70.111 116.041 69.092 116.041 67.834Z" fill="#5A4949"/>
<path d="M47.496 145.332C47.32 146.6 46.836 147.485 46.002 147.895C42.292 149.716 32.948 141.703 23.399 129.092C31.368 144.922 40.181 161.474 42.535 162.18C47.085 163.546 51.261 154.176 50.552 150.581C50.418 149.899 49.298 148.01 47.496 145.332Z" fill="#E79B69"/>
<path d="M10.87 102.582C2.25797 96.656 1.29095 91.713 1.06895 88.115C0.846948 84.517 9.653 77.967 9.387 83.284C9.187 87.274 10.563 88.953 12.653 90.223C17.639 93.255 12.523 103.72 10.87 102.582Z" fill="#E79B69"/>
<path d="M3.48499 95.551C4.91099 97.697 7.188 100.049 10.87 102.582C11.702 103.154 13.407 100.791 14.265 97.915C13.379 97.088 12.319 96.363 11.084 95.832C8.40598 94.679 5.61999 94.665 3.48499 95.551Z" fill="#EDB984"/>
<path d="M3.40997 84.242C6.35397 72.035 7.98402 67.086 8.88202 66.976C9.78002 66.867 6.44098 83.418 6.44098 83.418C5.26498 85.18 4.21297 85.824 3.40997 84.242Z" fill="#EDB984"/>
<path d="M6.31598 83.453C9.25998 71.246 10.91 67.186 11.808 67.077C12.706 66.967 9.367 83.519 9.367 83.519C9.431 85.044 6.37898 84.978 6.31598 83.453Z" fill="#EDB984"/>
<path d="M13.796 102.054C15.991 98.064 17.081 92.303 16.819 90.366C16.558 88.428 21.119 84.78 21.192 83.499C21.265 82.218 20.334 81.254 18.535 81.922C16.736 82.59 13.833 87.336 10.704 90.647C7.16097 94.399 13.796 102.054 13.796 102.054Z" fill="#EDB984"/>
<path d="M23.557 42.158H21.533V65.858H23.557V42.158Z" fill="#7F5AA3"/>
<path d="M22.46 68.681L16.094 62.316L17.525 60.885L22.46 65.819L27.649 60.632L29.08 62.063L22.46 68.681Z" fill="#7F5AA3"/>
<path d="M17.525 48.229L16.094 46.798L22.713 40.18L29.08 46.545L27.649 47.976L22.713 43.042L17.525 48.229Z" fill="#7F5AA3"/>
<path d="M6.29996 85.036C5.42096 83.036 4.08594 81.627 3.31894 81.889C2.55194 82.151 2.64197 83.984 3.52097 85.984C4.39997 87.984 5.73499 89.393 6.50199 89.131C7.26999 88.869 7.17996 87.036 6.29996 85.036Z" fill="#EDB984"/>
<path d="M4.28802 87.735C3.40902 85.735 2.074 84.326 1.307 84.588C0.540004 84.85 0.629969 86.683 1.50897 88.683C2.38797 90.683 3.72299 92.092 4.48999 91.83C5.25799 91.568 5.16702 89.735 4.28802 87.735Z" fill="#EDB984"/>
</svg>
