<svg width="156" height="196" viewBox="0 0 156 196" fill="none" xmlns="http://www.w3.org/2000/svg">
<path d="M71.54 70.828C56.659 63.024 52.104 56.753 47.56 47.613C33.784 38.174 42.713 14.534 54.914 6.16799C70.136 -4.26901 95.871 -0.639008 102.456 16.931C117.204 56.287 71.54 70.828 71.54 70.828Z" fill="#7D4230"/>
<path d="M88.137 83.546C114.148 93.812 151.019 130.683 153.82 136.664C156.667 142.742 155.507 146.448 151.234 147.301C145.655 148.415 99.655 110.292 93.578 108.803C87.365 107.28 88.137 83.546 88.137 83.546Z" fill="#5E4047"/>
<path d="M148.422 145.773C145.821 140.222 113.874 108.071 88.498 95.271C89.064 101.497 90.415 108.028 93.578 108.803C99.109 110.158 137.696 141.845 148.797 146.695C148.668 146.385 148.573 146.096 148.422 145.773Z" fill="#3F2A2F"/>
<path d="M139.391 140.691C135.891 142.556 107.608 179.62 101.18 193.421L101.906 193.797C101.906 193.797 154.484 149.198 154.419 144.355C154.354 139.53 142.925 138.807 139.391 140.691Z" fill="#EDB984"/>
<path d="M58.309 81.774C35.148 94.492 3.77301 141.303 1.74801 148.134C-0.27599 154.966 -1.28796 158.761 4.27804 158.761C9.84404 158.761 48.811 112.456 53.872 110.432C58.933 108.408 58.309 81.774 58.309 81.774Z" fill="#5E4047"/>
<path d="M6.64899 155.085C6.30699 156.215 5.99799 157.254 5.73999 158.213C14.774 153.367 49.554 114.002 54.337 112.29C57.325 111.221 58.349 101.665 58.685 93.91C36.04 108.997 8.54899 148.808 6.64899 155.085Z" fill="#3F2A2F"/>
<path d="M46.206 193.764H101.856L93.523 126.289L55.134 126.627L46.206 193.764Z" fill="#5E4047"/>
<path d="M73.748 154.192C88.133 154.192 99.808 171.834 100.116 193.764H101.856L93.523 126.289L55.134 126.626L46.206 193.763H47.381C47.689 171.834 59.364 154.192 73.748 154.192Z" fill="#3F2A2F"/>
<path d="M57.331 82.431C49.392 104.418 42.318 138.098 43.667 141.471C45.016 144.845 104.394 143.158 105.744 140.459C107.093 137.76 91.743 87.829 89.719 84.455C87.695 81.081 58.31 79.72 57.331 82.431Z" fill="#5E4047"/>
<path d="M95.008 98.552C99.079 114.962 99.981 134.184 99.176 135.966C97.929 138.727 49.645 140.097 48.154 136.646C47.049 134.088 47.604 117.417 52.167 98.126C46.124 118.026 41.093 139.842 42.149 142.482C43.498 145.856 106.25 144.169 107.6 141.47C108.529 139.612 100.66 114.879 95.008 98.552Z" fill="#3F2A2F"/>
<path d="M104.689 92.452C99.398 89.005 94.17 86.076 89.293 84.032C85.28 81.031 59.301 79.883 57.431 82.29C53.189 84.752 48.69 88.314 44.162 92.519C51.399 95.889 62.229 98.034 74.348 98.034C86.55 98.034 97.452 95.862 104.689 92.452Z" fill="#3F2A2F"/>
<path d="M59.269 81.53C62.958 102.353 73.524 114.65 73.524 114.65C73.524 114.65 82.956 98.923 86.196 82.819C79.311 81.079 64.573 80.437 59.269 81.53Z" fill="#F9F1D9"/>
<path d="M86.033 82.782C85.695 82.699 85.34 82.618 84.967 82.54C84.791 82.503 84.604 82.468 84.421 82.432C84.161 82.381 83.896 82.332 83.623 82.283C83.428 82.248 83.233 82.214 83.032 82.181C82.619 82.113 82.196 82.047 81.76 81.984C81.569 81.956 81.37 81.931 81.175 81.904C80.843 81.859 80.507 81.815 80.165 81.773C79.948 81.747 79.731 81.72 79.511 81.695C79.117 81.65 78.717 81.607 78.313 81.566C78.104 81.545 77.896 81.524 77.685 81.504C77.237 81.461 76.785 81.421 76.33 81.384C76.12 81.367 75.91 81.35 75.7 81.334C75.287 81.302 74.873 81.273 74.458 81.245C74.299 81.235 74.141 81.223 73.982 81.213C73.435 81.179 72.888 81.15 72.343 81.123C72.163 81.114 71.984 81.107 71.805 81.099C71.375 81.08 70.947 81.064 70.521 81.05C70.366 81.045 70.209 81.039 70.055 81.035C69.502 81.019 68.955 81.008 68.416 81.001C68.293 80.999 68.173 80.999 68.052 80.998C67.61 80.994 67.175 80.993 66.747 80.995C66.601 80.996 66.455 80.996 66.311 80.997C65.792 81.002 65.282 81.01 64.791 81.025C64.728 81.027 64.67 81.03 64.608 81.032C64.17 81.046 63.746 81.064 63.335 81.086C63.213 81.093 63.092 81.099 62.972 81.106C62.543 81.132 62.127 81.161 61.735 81.195C61.71 81.197 61.682 81.199 61.657 81.201C61.251 81.238 60.875 81.282 60.516 81.329C60.415 81.342 60.318 81.356 60.221 81.37C59.939 81.411 59.675 81.455 59.429 81.503C59.378 81.513 59.322 81.522 59.272 81.532C60.348 87.603 62.013 92.925 63.826 97.453C67.183 97.818 70.697 98.034 74.351 98.034C76.855 98.034 79.286 97.921 81.66 97.746C83.466 93.151 85.154 88.012 86.198 82.825C86.14 82.811 86.09 82.796 86.033 82.782Z" fill="#E0D1AD"/>
<path d="M74.176 117.003L71.126 112.344L72.05 87.581L72.416 86.269L73.261 87.687L76.565 112.099L74.176 117.003Z" fill="#8A6793"/>
<path d="M77.573 52.91H63.235L64.457 80.971C64.847 87.334 79.707 87.734 79.317 81.371L77.573 52.91Z" fill="#D27558"/>
<path d="M52.27 32.17C52.27 56.461 57.583 68.109 72.091 75.76C85.755 70.133 91.827 57.431 90.849 28.79C90.34 13.88 52.27 21.248 52.27 32.17Z" fill="#EDB984"/>
<path d="M67.95 14.023C62.283 24.544 91.617 35.869 89.26 59.109C89.26 59.109 111.743 39.501 102.412 24.123C91.913 6.81799 72.843 4.94101 67.95 14.023Z" fill="#7D4230"/>
<path d="M50.928 48.314C49.85 45.54 48.039 43.859 46.884 44.558C45.729 45.258 45.666 48.073 46.745 50.847C47.823 53.621 49.634 55.302 50.789 54.603C51.943 53.903 52.006 51.088 50.928 48.314Z" fill="#EDB984"/>
<path d="M96.145 50.578C97.238 47.81 97.052 45.346 95.729 45.075C94.406 44.804 92.448 46.828 91.355 49.595C90.262 52.363 90.448 54.827 91.771 55.098C93.093 55.37 95.052 53.346 96.145 50.578Z" fill="#EDB984"/>
<path d="M65.083 45.961C65.114 43.72 64.009 41.816 62.61 41.701C61.205 41.586 60.031 43.318 59.993 45.574C59.955 47.837 61.072 49.756 62.484 49.855C63.89 49.954 65.051 48.208 65.083 45.961Z" fill="#5A4949"/>
<path d="M84.012 45.739C84.012 43.383 82.973 41.391 81.687 41.283C80.395 41.174 79.34 43.004 79.333 45.375C79.327 47.753 80.377 49.76 81.675 49.853C82.967 49.945 84.012 48.101 84.012 45.739Z" fill="#5A4949"/>
<path d="M64.51 33.159L56.452 34.816C55.443 35.024 54.778 35.816 54.971 36.586L55.354 38.115C55.547 38.887 56.525 39.336 57.534 39.119L65.59 37.387C66.561 37.178 67.189 36.399 66.997 35.647L66.615 34.157C66.422 33.406 65.482 32.959 64.51 33.159Z" fill="#7D4230"/>
<path d="M87.198 37.812L81.324 35.545C80.594 35.264 79.722 35.559 79.376 36.207L78.688 37.496C78.34 38.148 78.656 38.904 79.392 39.183L85.315 41.427C86.035 41.7 86.889 41.396 87.224 40.75L87.887 39.473C88.22 38.831 87.912 38.088 87.198 37.812Z" fill="#7D4230"/>
<path d="M74.814 51.82C74.814 51.82 74.447 51.751 73.904 51.687C73.222 53.804 71.494 56.733 68.787 52.618C68.733 52.682 68.652 52.723 68.608 52.794C72.507 60.193 74.617 53.42 74.814 51.82Z" fill="#D27558"/>
<path d="M72.201 62.175C70.048 62.411 68.067 62.282 66.498 61.901C67.613 63.03 69.841 63.658 72.333 63.385C74.825 63.112 76.864 62.015 77.708 60.671C76.26 61.383 74.354 61.939 72.201 62.175Z" fill="#D27558"/>
<path d="M75.907 65.211C75.82 64.901 75.163 64.813 74.439 65.016C73.715 65.219 73.199 65.634 73.286 65.945C73.373 66.255 74.03 66.343 74.754 66.14C75.478 65.938 75.994 65.522 75.907 65.211Z" fill="#D27558"/>
<path d="M81.816 114.08C82.77 112.688 79.801 108.41 78.484 108.55C77.375 108.668 74.584 108.355 69.638 116.18L70.743 118.273C70.743 118.273 80.872 115.456 81.816 114.08Z" fill="#EDB984"/>
<path d="M80.978 114.702C81.389 114.476 81.69 114.264 81.817 114.079C82.771 112.687 79.802 108.409 78.485 108.549C77.813 108.621 76.521 108.546 74.477 110.245C77.545 110.457 80.169 112.209 80.978 114.702Z" fill="#EDB984"/>
<path d="M75.463 109.317C74.092 110.56 72.457 112.433 70.52 115.327L71.457 116.818C72.396 116.335 73.325 115.561 74.089 114.519C75.377 112.763 75.838 110.773 75.463 109.317Z" fill="#EDB984"/>
<path d="M3.76597 151.783C13.747 136.623 73.801 114.165 73.801 114.165L75.117 114.941C75.117 114.941 29.191 149.76 18.089 156.21C3.30697 164.798 3.76597 151.783 3.76597 151.783Z" fill="#EDB984"/>
<path d="M77.785 106.195C81.337 110.685 77.345 108.889 77.345 108.889L76.225 109.383C76.225 109.383 76.743 113.717 72.103 116.609L69.014 116.174C70.522 107.897 76.813 104.966 77.785 106.195Z" fill="#EDB984"/>
<path d="M82.573 104.822C78.872 104.822 75.94 106.289 75.94 106.289L76.323 109.35C76.323 109.35 86.144 104.822 82.573 104.822Z" fill="#EDB984"/>
<path d="M77.04 108.772C83.25 104.585 87.039 104.194 87.558 104.395C88.076 104.596 79.599 109.685 79.599 109.685L77.04 108.772Z" fill="#EDB984"/>
<path d="M81.717 112.114C83.732 110.647 89.314 107.091 89.797 107.58C90.277 108.067 82.571 113.905 81.249 114.548C79.932 115.188 81.717 112.114 81.717 112.114Z" fill="#EDB984"/>
<path d="M79.66 110.033C83.468 107.879 89.776 104.674 90.55 105.049C91.321 105.423 82.372 111.409 81.418 111.827C80.467 112.244 79.66 110.033 79.66 110.033Z" fill="#EDB984"/>
<path d="M62.951 117.173L57.168 119.894L58.104 130.779L64.141 127.037L62.951 117.173Z" fill="#F9F1D9"/>
<path d="M58.529 118.959L59.719 131.034C59.719 131.034 10.284 168.934 1.475 158.202C-8.819 145.66 58.529 118.959 58.529 118.959Z" fill="#5E4047"/>
<path d="M59.209 125.851C54.852 129.153 9.68803 162.971 1.30603 152.76C1.24903 152.69 1.20703 152.618 1.15503 152.548C0.122029 154.618 0.109013 156.536 1.47601 158.202C10.285 168.933 59.72 131.034 59.72 131.034L59.209 125.851Z" fill="#3F2A2F"/>
<path d="M103.938 186.477L109.38 195.321C109.38 195.321 155.301 148.558 155.135 144.131C154.969 139.704 143.394 135.796 138.462 139.707C133.531 143.619 103.938 186.477 103.938 186.477Z" fill="#5E4047"/>
<path d="M62.352 81.146L64.334 78.137C69.927 85.287 74.965 85.511 79.449 78.822L81.15 81.628L77.408 89.196L72.646 86.305L66.523 89.877L62.352 81.146Z" fill="#E5D7B7"/>
<path d="M72.735 89.225L70.242 86.682L72.809 83.936L74.862 86.608L72.735 89.225Z" fill="#8A6793"/>
<path d="M85.918 193.764C78.918 180.817 74.856 165.218 74.856 165.218C74.856 165.218 71.919 175.715 59.524 193.764H85.918Z" fill="#E0D1AD"/>
<path d="M63.235 193.764H83.124C77.85 182.321 74.856 170.831 74.856 170.831C74.856 170.831 72.517 179.174 63.235 193.764Z" fill="#F9F1D9"/>
<path d="M75.536 134.435C75.536 132.697 74.508 131.289 73.24 131.289C71.972 131.289 70.944 132.698 70.944 134.435C70.944 136.173 71.972 137.581 73.24 137.581C74.508 137.582 75.536 136.173 75.536 134.435Z" fill="#3F2A2F"/>
<path d="M76.429 155.354C76.429 153.616 75.401 152.208 74.133 152.208C72.865 152.208 71.837 153.617 71.837 155.354C71.837 157.092 72.865 158.5 74.133 158.5C75.401 158.5 76.429 157.092 76.429 155.354Z" fill="#3F2A2F"/>
<path d="M75.194 124.316C75.194 122.837 74.319 121.639 73.241 121.639C72.162 121.639 71.288 122.837 71.288 124.316C71.288 125.794 72.163 126.993 73.241 126.993C74.319 126.993 75.194 125.794 75.194 124.316Z" fill="#3F2A2F"/>
<path d="M114.212 88.87C111.421 86.923 109.882 83.448 110.582 79.902C111.526 75.117 116.186 71.993 120.97 72.937C125.754 73.881 128.879 78.541 127.935 83.325C127.393 86.072 125.623 88.267 123.311 89.463L124.57 91.34C127.358 89.815 129.478 87.113 130.139 83.759C131.323 77.759 127.405 71.916 121.405 70.732C115.405 69.548 109.562 73.466 108.378 79.466C107.565 83.588 109.16 87.635 112.183 90.149L114.212 88.87Z" fill="#8A6793"/>
<path d="M121.268 83.506L123.95 83.397L124.253 90.238L131.643 90.11L131.7 92.784L121.689 92.956L121.268 83.506Z" fill="#8A6793"/>
</svg>
