<svg width="155" height="203" viewBox="0 0 155 203" fill="none" xmlns="http://www.w3.org/2000/svg">
<path d="M107.767 84.385L93.487 168.665C99.927 175.012 98.874 202.22 98.874 202.22H136.213C146.545 152.518 134.625 109.124 107.767 84.385Z" fill="#708DB7"/>
<path d="M119.45 202.219C130.233 164.288 120.35 111.699 111.314 104.805L90.754 165.15C99.702 172.379 102.036 202.219 102.036 202.219H119.45Z" fill="#537296"/>
<path d="M139.893 179.415L103.186 184.726C101.895 184.913 100.934 186.302 100.952 187.955L101.075 198.971C101.095 200.766 102.257 202.221 103.671 202.221H137.58C138.78 202.221 139.806 201.163 140.05 199.676L142.725 183.35C143.082 181.17 141.637 179.163 139.893 179.415Z" fill="#F4E9C3"/>
<path d="M121.308 201.26C121.308 194.013 122.21 187.293 123.746 181.751L103.186 184.726C101.895 184.913 100.934 186.302 100.952 187.955L101.075 198.971C101.095 200.766 102.257 202.221 103.671 202.221H121.317C121.314 201.9 121.308 201.582 121.308 201.26Z" fill="#E5D5A8"/>
<path d="M17.903 201.463L103.28 202.201C113.824 172.518 127.262 104.251 111.511 87.932C96.531 72.411 72.154 65.983 72.154 65.983C72.154 65.983 38.033 67.152 19.677 93.735C6.88301 112.263 17.903 201.463 17.903 201.463Z" fill="#708DB7"/>
<path d="M62.293 131.36C42.695 131.36 25.276 125.398 14.175 116.153C11.418 148.965 17.903 201.462 17.903 201.462L53.979 201.774C55.798 192.694 59.408 182.772 64.797 172.9C79.655 145.683 102.724 128.549 118.016 132.673C118.811 123.551 118.982 114.916 118.259 107.536C109.056 121.535 87.464 131.36 62.293 131.36Z" fill="#537296"/>
<path d="M111.511 87.931C96.531 72.41 72.154 65.982 72.154 65.982C72.154 65.982 58.545 66.537 43.848 73.397C50.486 78.806 62.114 84.008 75.88 87.171C90.342 90.494 103.665 90.765 111.942 88.446C111.796 88.28 111.663 88.088 111.511 87.931Z" fill="#537296"/>
<path d="M72.154 64.973C72.154 64.973 63.098 66.358 51.787 70.214C57.746 88.569 68.117 102.312 68.117 102.312C68.117 102.312 83.59 89.87 93.681 74.813C82.396 68.687 72.154 64.973 72.154 64.973Z" fill="#E0D5A9"/>
<path d="M82.674 88.518C86.43 84.47 90.348 79.786 93.681 74.813C93.678 74.811 93.674 74.809 93.671 74.808C93.182 74.543 92.699 74.288 92.215 74.032C81.525 68.456 72.155 65.983 72.155 65.983C72.155 65.983 63.452 66.347 52.456 69.993C52.232 70.068 52.014 70.138 51.788 70.215C52.964 73.838 54.314 77.271 55.72 80.464C61.497 83.108 68.366 85.445 75.881 87.172C78.181 87.699 80.447 88.142 82.674 88.518Z" fill="#D1C18F"/>
<path d="M84.026 47.552L60.823 46.556L58.729 68.48C61.288 77.84 78.524 78.918 86.156 70.902L84.026 47.552Z" fill="#D27558"/>
<path d="M60.094 36.973C58.079 32.473 54.156 29.529 51.331 30.397C48.506 31.265 47.85 35.617 49.864 40.117C51.879 44.617 55.802 47.561 58.627 46.693C61.452 45.825 62.108 41.473 60.094 36.973Z" fill="#EDB984"/>
<path d="M58.259 37.272C56.914 34.227 54.359 32.209 52.553 32.764C50.748 33.32 50.375 36.238 51.72 39.284C53.066 42.329 55.62 44.347 57.426 43.792C59.232 43.236 59.605 40.317 58.259 37.272Z" fill="#D27558"/>
<path d="M59.438 39.738C58.53 37.71 56.762 36.384 55.489 36.775C54.216 37.166 53.92 39.128 54.828 41.155C55.736 43.183 57.504 44.51 58.777 44.118C60.05 43.727 60.346 41.766 59.438 39.738Z" fill="#EDB984"/>
<path d="M87.202 40.671C89.217 36.171 93.14 33.227 95.965 34.095C98.79 34.963 99.446 39.315 97.432 43.815C95.418 48.315 91.494 51.259 88.669 50.391C85.844 49.523 85.188 45.171 87.202 40.671Z" fill="#EDB984"/>
<path d="M88.779 41.09C90.103 38.136 92.679 36.201 94.533 36.766C96.387 37.332 96.817 40.185 95.493 43.139C94.169 46.093 91.593 48.028 89.739 47.463C87.885 46.897 87.455 44.043 88.779 41.09Z" fill="#D27558"/>
<path d="M88.123 42.938C89.061 40.846 90.885 39.474 92.198 39.875C93.511 40.276 93.815 42.297 92.878 44.389C91.94 46.481 90.116 47.852 88.803 47.452C87.49 47.051 87.185 45.03 88.123 42.938Z" fill="#EDB984"/>
<path d="M97.668 3.55098C82.302 -3.66402 56.117 3.74599 56.117 3.74599C56.117 3.74599 49.997 35.747 59.944 61.461L86.052 58.595C99.709 37.736 97.668 3.55098 97.668 3.55098Z" fill="#823830"/>
<path d="M61.596 16.089C58.243 20.833 54.266 55.262 59.083 62.472C60.279 64.263 65.24 67.253 71.272 67.758C77.063 68.243 83.91 66.319 86.111 64.477C90.604 60.716 93.666 23.194 91.304 17.593C88.978 12.077 64.608 11.826 61.596 16.089Z" fill="#EDB984"/>
<path d="M80.459 39.286C80.793 37.502 82.013 36.322 83.183 36.65C84.353 36.978 85.031 38.691 84.697 40.475C84.363 42.259 83.143 43.439 81.973 43.111C80.803 42.783 80.125 41.07 80.459 39.286Z" fill="#5A4949"/>
<path d="M63.078 37.771C63.222 35.972 64.315 34.686 65.519 34.899C66.724 35.112 67.584 36.743 67.44 38.542C67.296 40.341 66.203 41.627 64.999 41.414C63.795 41.201 62.935 39.57 63.078 37.771Z" fill="#5A4949"/>
<path d="M72.209 41.495C71.52 45.117 71.427 48.048 72.797 49.444C73.606 50.269 74.525 50.181 75.165 49.948L75.196 50.038C75.196 50.038 73.162 51.659 71.655 50.38C70.03 49.001 70.785 45.566 72.209 41.495Z" fill="#D27558"/>
<path d="M75.927 56.734C76.881 56.967 77.672 57.274 78.334 57.63C77.826 56.74 76.957 55.984 75.528 55.565C71.98 54.524 69.195 55.474 67.305 56.671C69.504 56.067 72.358 55.864 75.927 56.734Z" fill="#D27558"/>
<path d="M69.429 58.835C69.401 59.147 70.484 58.312 71.909 58.425C73.334 58.538 74.561 59.557 74.589 59.244C74.616 58.932 73.433 57.407 72.009 57.294C70.583 57.181 69.456 58.523 69.429 58.835Z" fill="#D27558"/>
<path d="M85.679 37.801C85.679 36.206 84.411 34.913 82.847 34.913C81.283 34.913 80.015 36.206 80.015 37.801C80.015 39.396 81.283 40.689 82.847 40.689C84.411 40.69 85.679 39.397 85.679 37.801Z" fill="#EDB984"/>
<path d="M67.999 35.849C67.999 34.254 66.731 32.961 65.167 32.961C63.603 32.961 62.335 34.254 62.335 35.849C62.335 37.444 63.603 38.738 65.167 38.738C66.732 38.738 67.999 37.445 67.999 35.849Z" fill="#EDB984"/>
<path d="M80.344 31.49L87.704 33.062C88.323 33.194 88.743 33.763 88.643 34.334L88.265 36.485C88.165 37.056 87.581 37.411 86.962 37.279L79.602 35.706C78.983 35.574 78.563 35.005 78.663 34.434L79.041 32.283C79.141 31.713 79.725 31.357 80.344 31.49Z" fill="#823830"/>
<path d="M60.755 31.135L68.451 30.575C69.098 30.528 69.663 30.978 69.712 31.581L69.898 33.855C69.947 34.458 69.462 34.985 68.815 35.032L61.119 35.592C60.472 35.639 59.907 35.189 59.858 34.586L59.672 32.312C59.623 31.709 60.108 31.182 60.755 31.135Z" fill="#823830"/>
<path d="M92.24 15.904C92.515 12.994 85.889 9.986 77.439 9.187C68.989 8.388 61.916 10.099 61.641 13.01C61.366 15.92 67.992 18.928 76.442 19.727C84.891 20.526 91.964 18.815 92.24 15.904Z" fill="#823830"/>
<path d="M46.646 137.483C29.809 116.309 43.293 75.564 38.351 76.464C33.409 77.364 2.25699 79.829 0.470987 124.473C-0.795013 156.131 13.481 170.903 25.472 171.668C37.462 172.433 46.646 137.483 46.646 137.483Z" fill="#708DB7"/>
<path d="M38.559 91.435C38.062 93.998 37.458 96.61 36.75 99.237C30.993 120.595 17.28 138.3 6.12 138.781C4.158 138.866 2.41099 138.402 0.885986 137.482C3.40899 160.207 15.265 171.016 25.471 171.667C37.461 172.432 46.645 137.482 46.645 137.482C36.538 124.771 37.359 105.009 38.559 91.435Z" fill="#537296"/>
<path d="M41.9341 122.785C36.9521 117.074 19.4351 120.816 11.4911 142.977C6.06006 158.128 10.421 172.178 25.472 173.453C40.523 174.729 49.4521 157.126 49.4521 157.126L41.9341 122.785Z" fill="#F4E9C3"/>
<path d="M86.746 108.41C86.512 107.341 90.831 104.658 92.785 106.123C94.162 107.156 97.932 113.499 97.782 114.767C97.635 116.017 94.628 117.873 93.519 117.526C92.405 117.176 87.001 109.576 86.746 108.41Z" fill="#E79B69"/>
<path d="M88.32 106.935C90.703 108.872 91.529 112.859 90.092 116.749C88.805 120.234 86.926 122.433 84.166 122.837C81.783 120.9 80.116 117.097 81.553 113.207C82.84 109.722 85.56 107.339 88.32 106.935Z" fill="#E79B69"/>
<path d="M81.344 135.753L89.207 130.648L84.498 113.52L73.913 116.71L81.344 135.753Z" fill="#E79B69"/>
<path d="M88.723 131.122C88.723 131.122 49.639 167.071 27.598 171.157C20.642 172.446 15.523 139.354 30.064 128.044C39.587 120.637 75.494 116.692 75.494 116.692C89.385 115.181 90.347 122.29 88.723 131.122Z" fill="#EDB984"/>
<path d="M90.342 130.883C96.863 131.448 102.72 129.145 106.876 125.243C111.033 121.341 103.889 105.927 101.264 105.385C98.6389 104.843 85.983 111.34 82.32 116.123C79.696 119.551 83.12 130.256 90.342 130.883Z" fill="#EDB984"/>
<path d="M106.687 119.445C107.793 119.445 110.498 124.062 108.966 125.483C107.886 126.485 101.695 128.374 100.542 127.93C99.405 127.492 97.978 124.304 98.402 123.379C98.828 122.451 105.595 119.445 106.687 119.445Z" fill="#EDB984"/>
<path d="M106.4 111.512C107.598 111.432 110.232 116.027 108.483 117.614C107.25 118.733 100.426 121.143 99.205 120.766C98.002 120.394 96.66 117.189 97.178 116.198C97.698 115.203 105.217 111.591 106.4 111.512Z" fill="#EDB984"/>
<path d="M102.84 104.685C103.981 104.569 106.816 108.777 105.251 110.324C104.148 111.414 97.783 113.907 96.589 113.597C95.412 113.291 93.909 110.338 94.336 109.393C94.767 108.442 101.714 104.8 102.84 104.685Z" fill="#EDB984"/>
<path d="M134.86 96.42C133.847 93.171 134.76 89.482 137.486 87.108C141.163 83.905 146.76 84.291 149.964 87.968C153.167 91.646 152.781 97.243 149.104 100.446C146.992 102.285 144.249 102.935 141.688 102.464L141.533 104.719C144.671 105.222 148.001 104.386 150.58 102.14C155.191 98.123 155.675 91.105 151.659 86.493C147.642 81.882 140.624 81.398 136.012 85.414C132.844 88.173 131.624 92.349 132.473 96.188L134.86 96.42Z" fill="#8A6793"/>
<path d="M143.724 96.504L145.91 98.06L141.958 103.652L147.876 108.08L146.284 110.228L138.266 104.23L143.724 96.504Z" fill="#8A6793"/>
</svg>
