<svg width="221" height="201" viewBox="0 0 221 201" fill="none" xmlns="http://www.w3.org/2000/svg">
<path d="M146.935 18.463C148.466 14.805 137.751 6.465 137.751 6.465C137.751 6.465 140.047 6.611 136.986 3.539C133.925 0.466004 124.486 2.66101 124.486 2.66101C124.486 2.66101 126.91 1.19801 123.338 0.613009C119.766 0.0280087 111.731 5.88001 111.731 5.88001C111.731 5.88001 112.496 3.1 106.884 6.026C101.272 8.952 100.379 19.926 100.379 19.926L98.593 18.463C98.593 18.463 92.598 33.387 108.159 49.042L139.665 46.555C151.4 34.557 143.619 19.487 143.619 19.487C143.619 19.487 145.404 22.12 146.935 18.463Z" fill="#873E3E"/>
<path d="M161.873 79.113L169.944 173.856C179.105 180.389 187.897 200.398 187.897 200.398H220.033C215.629 147.62 194.182 104.104 161.873 79.113Z" fill="#EDB984"/>
<path d="M172.663 127.411C166.822 123.052 169.944 173.857 169.944 173.857C179.105 180.39 187.897 200.399 187.897 200.399H200.175C199.082 188.575 187.897 138.779 172.663 127.411Z" fill="#E79B69"/>
<path d="M112.283 76.126C88.516 78.311 68.575 110.651 57.329 125.613C58.921 131.07 68.587 145.375 84.731 134.461C100.875 123.546 112.283 76.126 112.283 76.126Z" fill="#E79B69"/>
<g opacity="0.8">
<path d="M18.555 114.337C11.293 111.032 7.29699 99.822 6.99999 95.726C6.70399 91.63 16.205 85.605 19.615 86.664C23.025 87.723 31.76 101.076 32.832 103.663C33.905 106.25 21.83 115.828 18.555 114.337Z" fill="#E79B69"/>
<path d="M18.792 105.698C15.856 105.471 13.165 106.09 11.267 107.248C13.122 110.253 15.555 112.972 18.555 114.337C20.238 115.103 24.239 112.943 27.591 110.314C26.321 107.911 22.92 106.018 18.792 105.698Z" fill="#EDB984"/>
<path d="M22.172 122.125L17.105 113.548L31.246 101.603L39.197 110.988L22.172 122.125Z" fill="#EDB984"/>
<path d="M21.485 120.962C29.248 142.548 52.883 168.178 63.387 174.597C73.891 181.016 90.122 155.754 90.122 155.754C90.122 155.754 63.066 128.946 38.905 110.643L21.485 120.962Z" fill="#EDB984"/>
<path d="M90.122 155.755C90.122 155.755 68.463 134.298 46.598 116.67C42.423 126.172 39.917 138.277 39.917 151.468C39.917 151.526 39.919 151.583 39.919 151.64C48.551 162.383 57.815 171.193 63.386 174.597C73.891 181.016 90.122 155.755 90.122 155.755Z" fill="#E79B69"/>
<path d="M8.57998 101.151C3.73798 90.164 0.121977 82.376 0.230977 81.304C0.339977 80.232 2.93998 77.721 3.83898 78.658C4.73798 79.595 10.811 91.642 10.811 91.642C11.454 95.977 10.058 98.023 8.57998 101.151Z" fill="#EDB984"/>
<path d="M23.334 90.153C17.801 81.364 12.322 73.474 11.323 73.104C10.324 72.734 7.29 73.852 7.736 75.078C8.181 76.304 15.318 87.474 15.318 87.474C18.037 90.366 20.467 89.381 23.334 90.153Z" fill="#EDB984"/>
<path d="M10.361 91.026C10.361 91.026 2.308 75.845 2.159 74.906C2.099 74.532 4.79999 72.14 5.81699 72.656C6.83299 73.171 15.407 87.672 15.407 87.672C14.849 90.906 13.216 92.115 10.361 91.026Z" fill="#EDB984"/>
<path d="M33.269 104.331C32.394 97.8 28.765 89.211 26.331 87.896C23.897 86.581 16.123 91.237 15.045 93.086C13.967 94.935 16.048 97.388 17.332 97.31C18.616 97.233 23.713 93.803 23.713 93.803L24.368 94.804C24.368 94.804 20.468 98.663 22.277 103.704C24.086 108.745 33.944 109.371 33.269 104.331Z" fill="#EDB984"/>
<path d="M11.034 93.671L5.561 81.744L11.822 93.446L11.034 93.671Z" fill="#E79B69"/>
<path d="M15.758 89.306L9.38599 77.996L16.533 89.037L15.758 89.306Z" fill="#E79B69"/>
</g>
<path d="M87.622 200.399H177.59C177.42 161.842 182.58 100.592 166.751 83.527C151.696 67.296 121.958 65.791 121.958 65.791C121.958 65.791 100.315 73.043 86.083 101.143C76.163 120.728 87.622 200.399 87.622 200.399Z" fill="#7C5960"/>
<path d="M126.654 150.447C141.168 150.447 161.457 180.194 165.365 200.398H177.59C176.826 183.683 179.884 160.266 178.059 137.046C170.771 149.075 151.55 147.64 126.653 147.64C105.863 147.64 89.26 148.063 79.301 140.746C79.386 170.47 87.622 200.398 87.622 200.398H94.982C102.545 177.252 112.873 150.447 126.654 150.447Z" fill="#5E4047"/>
<path d="M94.413 151.339C103.526 109.651 134.982 80.62 166.538 83.308C151.419 67.286 121.958 65.79 121.958 65.79C121.958 65.79 100.315 73.041 86.083 101.141C76.163 120.727 87.623 200.397 87.623 200.397H95.482C91.277 185.705 90.614 168.716 94.413 151.339Z" fill="#5E4047"/>
<path d="M159.973 200.399H177.59C176.4 184.847 179.772 161.811 178.315 140.257C178.072 136.671 171.556 184.573 159.973 200.399Z" fill="#5E4047"/>
<path d="M80.575 129.912C80.575 129.796 79.968 129.27 79.969 129.154C77.574 159.5 87.623 200.399 87.623 200.399H100.868C88.562 184.458 80.575 158.827 80.575 129.912Z" fill="#5E4047"/>
<path d="M164.665 128.848C166.525 126.523 169.973 101.939 164.469 81.292C148.891 67.164 121.958 65.791 121.958 65.791C121.958 65.791 108.601 70.273 95.973 85.817C92.064 105.463 93.41 125.149 96.637 129.529C101.398 135.991 161.943 132.25 164.665 128.848Z" fill="#EDB984"/>
<path d="M164.469 81.292C164.204 81.052 163.929 80.825 163.658 80.592C168.855 101.062 165.48 125.022 163.645 127.317C160.98 130.648 102.861 134.304 95.99 128.383C96.196 128.834 96.411 129.222 96.637 129.528C101.399 135.991 161.944 132.249 164.666 128.848C166.525 126.523 169.973 101.939 164.469 81.292Z" fill="#E79B69"/>
<path d="M118.667 98.84C123.21 85.145 130.518 74.536 138.579 68.549C129.325 66.171 121.957 65.791 121.957 65.791C121.957 65.791 108.6 70.273 95.972 85.817C92.063 105.463 93.409 125.149 96.636 129.529C98.163 131.601 105.428 132.623 114.679 132.945C113.572 122.489 114.794 110.516 118.667 98.84Z" fill="#E79B69"/>
<path d="M159.127 77.194C143.437 66.895 121.958 65.791 121.958 65.791C121.958 65.791 108.601 70.273 95.973 85.817C95.647 87.458 95.36 89.098 95.105 90.73C125.226 97.033 147.11 86.095 159.127 77.194Z" fill="#E79B69"/>
<path d="M112.06 71.03L111.725 58.288L137.532 54.991L137.337 68.23C129.238 78.715 120.852 80.815 112.06 71.03Z" fill="#D27558"/>
<path d="M144.999 44.219C146.432 40.737 145.863 37.201 143.727 36.322C141.591 35.443 138.698 37.552 137.265 41.034C135.832 44.516 136.401 48.052 138.537 48.931C140.673 49.81 143.566 47.701 144.999 44.219Z" fill="#EDB984"/>
<path d="M109.598 41.84C107.621 38.822 104.29 37.096 102.158 37.985C100.027 38.874 99.902 42.041 101.879 45.059C103.857 48.077 107.188 49.803 109.319 48.914C111.451 48.025 111.576 44.858 109.598 41.84Z" fill="#EDB984"/>
<path d="M103.537 32.458H110.854L113.108 53.474L105.988 50.867L103.537 32.458Z" fill="#873E3E"/>
<path d="M143.116 31.187H135.8L134.524 53.474L141.523 50.71L143.116 31.187Z" fill="#873E3E"/>
<path d="M107.091 25.772C106.19 34.153 107.467 59.736 108.408 61.966C109.348 64.196 119.882 70.028 124.772 69.685C129.662 69.342 140.384 62.652 140.76 60.251C141.136 57.849 139.923 25.509 139.067 22.856C136.245 14.107 108.031 17.023 107.091 25.772Z" fill="#EDB984"/>
<path d="M140.812 22.638C140.577 21.91 140.153 21.27 139.597 20.7C140.043 30.897 138.613 43.653 138.412 45.114C138.083 47.515 129.151 49.719 124.868 50.062C120.585 50.405 110.901 49.059 110.077 46.829C109.518 45.316 107.557 34.067 107.414 23.722C106.513 24.637 105.943 25.658 105.823 26.776C104.922 35.157 107.467 59.736 108.408 61.966C109.348 64.196 119.882 70.028 124.772 69.685C129.662 69.342 140.384 62.652 140.76 60.25C141.136 57.849 141.668 25.292 140.812 22.638Z" fill="#873E3E"/>
<path d="M129.931 38.967C130.041 37.281 131.049 36.042 132.181 36.2C133.313 36.358 134.141 37.853 134.031 39.539C133.921 41.225 132.913 42.464 131.781 42.306C130.649 42.148 129.821 40.654 129.931 38.967Z" fill="#5A4949"/>
<path d="M130.996 30.368L137.796 32.294C138.368 32.456 138.72 33.01 138.583 33.533L138.067 35.503C137.93 36.026 137.355 36.318 136.783 36.156L129.983 34.23C129.411 34.068 129.059 33.514 129.196 32.991L129.712 31.021C129.849 30.499 130.424 30.206 130.996 30.368Z" fill="#873E3E"/>
<path d="M112.818 39.645C112.748 37.969 113.625 36.648 114.776 36.696C115.927 36.744 116.917 38.141 116.986 39.817C117.055 41.493 116.179 42.814 115.028 42.766C113.877 42.718 112.888 41.321 112.818 39.645Z" fill="#5A4949"/>
<path d="M109.208 33.321L116.091 30.936C116.67 30.735 117.288 31.003 117.473 31.533L118.169 33.533C118.353 34.064 118.034 34.656 117.455 34.857L110.572 37.242C109.993 37.443 109.375 37.175 109.19 36.645L108.494 34.644C108.309 34.115 108.629 33.522 109.208 33.321Z" fill="#873E3E"/>
<path d="M122.425 40.925C122.191 44.349 122.437 47.063 123.876 48.181C124.726 48.841 125.576 48.647 126.148 48.353L126.187 48.432C126.187 48.432 124.468 50.178 122.914 49.185C121.238 48.114 121.554 44.854 122.425 40.925Z" fill="#D27558"/>
<path d="M126.998 54.7C122.837 55.972 120.269 52.833 119.402 51.516L118.331 51.842C118.331 51.842 120.96 57.182 125.921 55.624C127.43 55.15 128.522 54.449 129.321 53.662C128.67 54.063 127.911 54.421 126.998 54.7Z" fill="#512020"/>
<path d="M127.142 59.794C127.157 59.503 126.202 59.634 124.989 59.59C123.776 59.546 122.764 59.344 122.749 59.635C122.734 59.926 123.723 60.601 124.936 60.645C126.15 60.689 127.128 60.085 127.142 59.794Z" fill="#512020"/>
<path d="M51.61 72.279C54.779 66.105 60.246 63.354 64.274 62.134C69.939 60.419 76.425 60.744 80.412 62.945L79.231 65.067C75.786 63.166 70.062 62.921 64.988 64.458C61.41 65.541 56.564 67.97 53.784 73.388L51.61 72.279Z" fill="#C45B7B"/>
<path d="M49.184 67.065L51.556 66.496L53.029 72.541L59.594 71.128L60.115 73.501L51.222 75.415L49.184 67.065Z" fill="#C45B7B"/>
<path d="M91.318 137.945C90.331 124.173 81.556 113.58 71.718 114.286C61.881 114.991 54.707 126.728 55.694 140.5C56.681 154.272 66.56 163.908 76.397 163.203C86.235 162.497 92.305 151.718 91.318 137.945Z" fill="#E79B69"/>
<path d="M98.223 81.008C97.695 74.335 99.427 65.155 101.53 63.441C103.633 61.727 112.228 65.108 113.675 66.78C115.122 68.452 113.605 71.244 112.332 71.378C111.059 71.511 105.344 68.918 105.344 68.918L104.915 70.026C104.915 70.026 109.55 73.244 108.847 78.58C108.145 83.915 98.63 86.157 98.223 81.008Z" fill="#EDB984"/>
<path d="M114.743 88.599C121.15 84.105 122.685 72.244 122.107 68.1C121.529 63.957 110.954 59.491 107.842 61.108C104.73 62.725 99.011 77.506 98.509 80.268C98.007 83.031 111.854 90.626 114.743 88.599Z" fill="#EDB984"/>
<path d="M112.68 80.001C115.505 79.292 118.27 79.471 120.373 80.317C119.195 83.625 117.39 86.742 114.743 88.599C113.259 89.64 108.885 88.137 105.048 86.059C105.781 83.448 108.708 80.997 112.68 80.001Z" fill="#EDB984"/>
<path d="M112.854 96.977L115.995 87.572L99.625 77.948L93.833 88.634L112.854 96.977Z" fill="#EDB984"/>
<path d="M114.295 92.663C111.272 115.514 94.079 150.947 85.16 159.085C80.437 163.394 71.834 158.275 64.785 152.504C57.991 146.942 56.484 137.155 61.259 130.257C69.522 118.319 83.099 99.435 95.626 85.328L114.295 92.663Z" fill="#EDB984"/>
<path d="M122.018 73.202C123.646 63.986 124.977 57.434 124.576 56.6C124.175 55.766 120.977 54.079 120.37 54.92C119.763 55.761 117.243 65.951 117.243 65.951C117.821 69.445 119.731 70.902 122.018 73.202Z" fill="#EDB984"/>
<path d="M104.503 66.643C107.404 59.084 110.501 52.24 111.361 51.835C112.221 51.43 115.451 51.97 115.361 52.987C115.271 54.004 111.484 63.623 111.484 63.623C109.663 66.212 107.051 65.71 104.503 66.643Z" fill="#EDB984"/>
<path d="M117.238 65.866C117.238 65.866 120.8 52.98 120.684 52.222C120.638 51.92 117.376 50.339 116.54 50.86C115.704 51.381 111.452 63.79 111.452 63.79C112.882 66.279 114.789 67.048 117.238 65.866Z" fill="#EDB984"/>
<path d="M117.321 68.029L119.296 58.001L116.499 67.94L117.321 68.029Z" fill="#E79B69"/>
<path d="M111.564 65.118L114.577 55.475L110.744 64.994L111.564 65.118Z" fill="#E79B69"/>
<path d="M123.678 131.859L124.698 118.304L127.417 131.8L123.678 131.859Z" fill="#E79B69"/>
</svg>
