<svg width="233" height="207" viewBox="0 0 233 207" fill="none" xmlns="http://www.w3.org/2000/svg">
<g opacity="0.8">
<path d="M49.553 83.538L48.283 74.25L64.329 66.629L68.827 76.729L49.553 83.538Z" fill="#E79B69"/>
<path d="M69.095 73.557L48.235 81.522L49.784 92.132L72.422 84.976L69.095 73.557Z" fill="#FFD7DA"/>
<path d="M48.482 89.139C48.482 89.139 51.353 141.898 62.654 161.257C66.22 167.366 94.679 135.144 94.874 131.277C95.069 127.41 72.86 77.409 72.86 77.409L48.482 89.139Z" fill="#C45B7B"/>
<path d="M52.008 87.355L48.481 89.139C48.481 89.139 50.046 143.75 61.347 163.109C62.776 165.558 77.205 162.032 83.461 156.103C71.408 155.469 52.132 94.956 52.008 87.355Z" fill="#AD4769"/>
<path d="M47.364 73.543C42.677 68.974 40.596 63.035 40.837 57.339C41.077 51.643 57.415 46.986 59.54 48.62C61.665 50.254 65.011 64.081 63.78 69.979C62.898 74.205 52.555 78.603 47.364 73.543Z" fill="#E79B69"/>
<path d="M63.423 62.62C64.292 61.955 62.728 57.117 60.289 56.974C58.57 56.873 51.596 59.281 50.891 60.345C50.196 61.395 51.293 64.753 52.364 65.204C53.441 65.658 62.475 63.345 63.423 62.62Z" fill="#EDB984"/>
<path d="M45.351 53.696C44.628 52.859 39.3659 53.825 39.2899 55.914C39.2359 57.386 41.849 63.308 42.938 63.891C44.012 64.466 47.358 63.465 47.782 62.54C48.207 61.611 46.064 54.523 45.351 53.696Z" fill="#EDB984"/>
<path d="M51.545 48.733C50.823 47.774 45.623 48.78 45.564 51.141C45.522 52.806 48.154 59.548 49.236 60.225C50.303 60.893 53.607 59.816 54.019 58.777C54.433 57.733 52.258 49.68 51.545 48.733Z" fill="#EDB984"/>
<path d="M59.04 46.97C58.383 46.03 53.344 46.632 53.196 48.827C53.091 50.374 55.36 56.823 56.375 57.523C57.375 58.214 60.594 57.424 61.03 56.483C61.468 55.537 59.688 47.898 59.04 46.97Z" fill="#EDB984"/>
<path d="M63.174 60.477C60.104 60.417 56.897 62.927 55.482 66.825C54.214 70.317 54.228 73.209 56.074 75.3C59.144 75.36 62.873 73.533 64.289 69.636C65.558 66.144 65.02 62.568 63.174 60.477Z" fill="#EDB984"/>
</g>
<path d="M13.425 106.148L8.43201 98.213L19.897 84.645L28.165 91.985L13.425 106.148Z" fill="#E79B69"/>
<path d="M7.31203 98.634C6.08903 98.235 2.48299 96.143 0.909993 92.645C-1.71001 86.821 11.104 74.702 13.988 75.294C16.872 75.886 19.32 78.862 21.266 85.288C22.66 89.892 14.926 101.117 7.31203 98.634Z" fill="#E79B69"/>
<path d="M3.87703 95.643C1.25703 89.819 14.071 77.7 16.955 78.292C17.487 78.401 17.999 78.622 18.501 78.9C17.146 76.791 15.641 75.634 13.987 75.294C11.103 74.702 -1.71098 86.821 0.909016 92.645C1.81202 94.653 3.38004 96.181 4.78804 97.208C4.44804 96.718 4.13003 96.206 3.87703 95.643Z" fill="#EDB984"/>
<path d="M23.217 84.501C23.676 83.299 20.972 78.318 18.843 79.731C17.342 80.727 12.787 87.12 12.773 88.451C12.76 89.763 15.512 91.875 16.659 91.578C17.812 91.28 22.764 85.688 23.217 84.501Z" fill="#E79B69"/>
<path d="M27.099 88.986L11.392 104.856L17.185 113.878L34.846 98.011L27.099 88.986Z" fill="#FFD7DA"/>
<path d="M173.971 85.034L182.042 179.777C191.203 186.31 199.995 206.319 199.995 206.319H232.131C227.727 153.54 206.279 110.024 173.971 85.034Z" fill="#C45B7B"/>
<path d="M184.761 133.331C178.92 128.972 182.042 179.777 182.042 179.777C191.203 186.31 199.995 206.319 199.995 206.319H212.273C211.18 194.496 199.995 144.7 184.761 133.331Z" fill="#AD4769"/>
<path d="M118.129 81.477C92.672 102.18 50.534 162.713 52.126 168.17C53.718 173.627 76.983 189.493 93.127 178.579C109.271 167.665 118.129 81.477 118.129 81.477Z" fill="#C45B7B"/>
<path d="M65.029 160.091C62.673 158.344 60.789 156.072 59.297 153.446C54.499 161.138 51.695 166.69 52.127 168.17C53.719 173.627 76.984 189.493 93.128 178.579C98.262 175.108 105.662 114.772 109.272 101.271C95.146 114.318 75.683 167.99 65.029 160.091Z" fill="#AD4769"/>
<path d="M92.369 206.319H196.053C195.026 172.78 194.677 106.513 178.848 89.447C163.793 73.216 134.055 71.712 134.055 71.712C134.055 71.712 112.412 78.964 98.18 107.064C88.26 126.649 92.369 206.319 92.369 206.319Z" fill="#C45B7B"/>
<path d="M193.022 135.074C193.022 135.144 192.364 135.762 192.364 135.832C192.364 164.747 184.377 190.379 172.071 206.319H196.054C195.494 188.049 195.791 159.524 193.022 135.074Z" fill="#AD4769"/>
<path d="M92.673 135.832C92.673 135.716 92.066 135.19 92.067 135.074C89.672 165.42 92.37 206.319 92.37 206.319H112.966C100.659 190.379 92.673 164.747 92.673 135.832Z" fill="#AD4769"/>
<path d="M14.764 111.691C14.764 111.691 39.172 158.553 57.461 171.515C63.233 175.606 75.839 134.505 74.419 130.903C72.999 127.301 32.119 90.94 32.119 90.94L14.764 111.691Z" fill="#C45B7B"/>
<path d="M17.238 108.609L14.764 111.691C14.764 111.691 38.748 160.779 57.037 173.741C59.35 175.38 71.034 166.209 74.282 158.226C63.042 162.627 20.491 115.481 17.238 108.609Z" fill="#AD4769"/>
<path d="M166.817 80.509C151.801 72.617 134.055 71.712 134.055 71.712C134.055 71.712 120.109 76.942 108.005 90.835C115.905 96.657 130.403 98.455 144.837 93.821C154.022 90.872 161.666 86.035 166.817 80.509Z" fill="#AD4769"/>
<path d="M134.106 70.044C124.235 70.044 102.526 53.476 102.526 34.542C102.526 15.608 113.117 0.815002 137.642 0.815002C162.168 0.815002 168.299 19.158 168.299 35.725C168.299 52.292 150.654 70.044 134.106 70.044Z" fill="#873E3E"/>
<path d="M153.648 75.28C144.06 71.635 133.979 71.105 133.979 71.105C133.979 71.105 127.916 73.076 120.863 79.299C124.143 84.716 129.838 88.31 136.328 88.31C144.316 88.31 151.095 82.871 153.648 75.28Z" fill="#F2C4CA"/>
<path d="M124.158 76.95L123.823 64.208L149.63 60.911L149.435 74.15C141.336 84.635 132.949 86.735 124.158 76.95Z" fill="#D27558"/>
<path d="M157.097 50.139C158.53 46.657 157.961 43.121 155.825 42.242C153.689 41.362 150.796 43.472 149.363 46.954C147.93 50.436 148.499 53.972 150.635 54.851C152.771 55.73 155.664 53.621 157.097 50.139Z" fill="#EDB984"/>
<path d="M122.653 46.93C121.204 43.454 118.301 41.357 116.17 42.246C114.039 43.135 113.486 46.673 114.935 50.149C116.384 53.625 119.287 55.722 121.418 54.833C123.549 53.944 124.103 50.406 122.653 46.93Z" fill="#EDB984"/>
<path d="M117.889 38.638H125.206V59.395L118.365 56.82L117.889 38.638Z" fill="#873E3E"/>
<path d="M153.938 38.638H146.622V59.395L153.462 56.82L153.938 38.638Z" fill="#873E3E"/>
<path d="M119.189 31.692C118.288 40.073 119.565 65.656 120.506 67.886C121.446 70.116 131.98 75.948 136.87 75.605C141.76 75.262 152.482 68.572 152.858 66.17C153.234 63.768 152.021 31.428 151.165 28.775C148.343 20.027 120.129 22.943 119.189 31.692Z" fill="#EDB984"/>
<g opacity="0.6">
<path d="M195.406 183.486L91.702 186.426C91.757 189.043 91.821 191.486 91.886 193.697L195.623 190.756C195.557 188.396 195.486 185.971 195.406 183.486Z" fill="#FFD7DA"/>
<path d="M194.919 170.524L91.529 168.416C91.522 170.896 91.53 173.328 91.547 175.691L195.212 177.804C195.124 175.411 195.027 172.982 194.919 170.524Z" fill="#FFD7DA"/>
<path d="M194.084 155.201L91.676 156.502C91.621 158.94 91.582 161.372 91.558 163.777L194.523 162.468C194.39 160.052 194.245 157.627 194.084 155.201Z" fill="#FFD7DA"/>
</g>
<path d="M142.029 44.888C142.139 43.202 143.147 41.963 144.279 42.121C145.411 42.279 146.239 43.774 146.129 45.46C146.019 47.146 145.011 48.385 143.879 48.227C142.747 48.069 141.919 46.574 142.029 44.888Z" fill="#5A4949"/>
<path d="M142.239 35.744L149.228 36.792C149.815 36.88 150.235 37.385 150.166 37.921L149.903 39.941C149.833 40.477 149.3 40.84 148.712 40.752L141.723 39.704C141.136 39.616 140.716 39.111 140.785 38.575L141.047 36.555C141.118 36.019 141.651 35.656 142.239 35.744Z" fill="#823830"/>
<path d="M124.916 45.565C124.846 43.889 125.723 42.568 126.874 42.616C128.025 42.663 129.015 44.06 129.084 45.737C129.154 47.413 128.277 48.734 127.126 48.686C125.975 48.639 124.985 47.242 124.916 45.565Z" fill="#5A4949"/>
<path d="M121.316 36.966L128.494 35.729C129.098 35.625 129.665 35.989 129.761 36.542L130.123 38.629C130.219 39.182 129.807 39.715 129.204 39.819L122.026 41.056C121.422 41.16 120.855 40.796 120.76 40.243L120.398 38.156C120.301 37.603 120.712 37.07 121.316 36.966Z" fill="#823830"/>
<path d="M134.183 46.505C133.949 49.929 134.195 52.643 135.634 53.761C136.484 54.421 137.334 54.227 137.906 53.933L137.945 54.012C137.945 54.012 136.226 55.758 134.672 54.765C132.996 53.694 133.312 50.434 134.183 46.505Z" fill="#D27558"/>
<path d="M129.421 59.557L143.055 59.262C143.055 59.262 142.689 66.284 136.174 66.497C130.988 66.666 129.421 59.557 129.421 59.557Z" fill="#3E2D34"/>
<path d="M138.22 68.095C138.235 67.804 137.28 67.935 136.067 67.891C134.854 67.847 133.842 67.645 133.827 67.936C133.812 68.228 134.801 68.902 136.014 68.946C137.227 68.99 138.205 68.387 138.22 68.095Z" fill="#D27558"/>
<path d="M141.51 62.517C142.123 61.099 142.197 59.816 142.197 59.816L130.127 60.077C130.127 60.077 130.382 61.219 131.025 62.517H141.51Z" fill="#FFFEF8"/>
<path d="M1.667 92.61C2.431 94.009 7.41097 98.413 8.71997 98.496C10.028 98.579 12.428 96 12.228 94.87C12.028 93.74 5.87298 87.987 4.79798 87.571C3.72098 87.155 0.598995 90.655 1.667 92.61Z" fill="#EDB984"/>
<path d="M8.48198 80.828C7.36698 80.341 3.72097 83.913 4.90697 86.083C5.75497 87.636 11.694 92.759 13.028 92.89C14.362 93.021 16.67 90.275 16.41 89.033C16.149 87.792 9.59698 81.316 8.48198 80.828Z" fill="#EDB984"/>
<path d="M14.935 75.894C13.896 75.253 9.69096 78.415 10.615 80.759C11.266 82.412 16.395 87.935 17.638 88.148C18.863 88.358 21.354 85.92 21.29 84.727C21.226 83.528 15.961 76.526 14.935 75.894Z" fill="#EDB984"/>
<path d="M12.29 66.311C13.695 61.306 17.284 58.477 20.048 56.984C23.935 54.886 28.722 54.167 31.961 55.195L31.411 56.929C28.613 56.041 24.394 56.707 20.912 58.587C18.457 59.912 15.274 62.413 14.042 66.804L12.29 66.311Z" fill="#C45B7B"/>
<path d="M9.74799 62.838L11.397 62.069L13.366 66.293L17.955 64.285L18.686 65.951L12.469 68.672L9.74799 62.838Z" fill="#C45B7B"/>
</svg>
